<svg xmlns="http://www.w3.org/2000/svg" xmlns:xlink="http://www.w3.org/1999/xlink" width="500" zoomAndPan="magnify" viewBox="0 0 375 374.999991" height="500" preserveAspectRatio="xMidYMid meet" version="1.0"><defs><clipPath id="c415b58cd0"><path d="M 12.625 9 L 370 9 L 370 348.496094 L 12.625 348.496094 Z M 12.625 9 " clip-rule="nonzero"/></clipPath></defs><path fill="#ffffff" d="M 137.648438 259.3125 C 137.257812 259.3125 136.871094 259.351562 136.488281 259.425781 C 136.105469 259.503906 135.734375 259.617188 135.375 259.765625 C 135.015625 259.914062 134.671875 260.097656 134.347656 260.316406 C 134.023438 260.53125 133.722656 260.777344 133.445312 261.054688 C 133.171875 261.328125 132.925781 261.628906 132.707031 261.953125 C 132.492188 262.277344 132.308594 262.621094 132.160156 262.980469 C 132.007812 263.34375 131.894531 263.714844 131.820312 264.097656 C 131.742188 264.480469 131.707031 264.867188 131.707031 265.257812 L 131.707031 294.972656 C 131.707031 295.363281 131.742188 295.75 131.820312 296.132812 C 131.894531 296.515625 132.007812 296.886719 132.160156 297.246094 C 132.308594 297.605469 132.492188 297.949219 132.707031 298.273438 C 132.925781 298.597656 133.171875 298.898438 133.445312 299.175781 C 133.722656 299.449219 134.023438 299.695312 134.347656 299.914062 C 134.671875 300.128906 135.015625 300.3125 135.375 300.464844 C 135.734375 300.613281 136.105469 300.726562 136.488281 300.800781 C 136.871094 300.878906 137.257812 300.914062 137.648438 300.914062 C 138.039062 300.914062 138.425781 300.878906 138.808594 300.800781 C 139.191406 300.726562 139.5625 300.613281 139.921875 300.464844 C 140.285156 300.3125 140.625 300.128906 140.949219 299.914062 C 141.273438 299.695312 141.574219 299.449219 141.851562 299.175781 C 142.128906 298.898438 142.375 298.597656 142.589844 298.273438 C 142.808594 297.949219 142.992188 297.605469 143.140625 297.246094 C 143.289062 296.886719 143.402344 296.515625 143.476562 296.132812 C 143.554688 295.75 143.59375 295.363281 143.59375 294.972656 L 143.59375 265.257812 C 143.59375 264.867188 143.554688 264.480469 143.476562 264.097656 C 143.402344 263.714844 143.289062 263.34375 143.140625 262.980469 C 142.992188 262.621094 142.808594 262.277344 142.589844 261.953125 C 142.375 261.628906 142.128906 261.328125 141.851562 261.054688 C 141.574219 260.777344 141.273438 260.53125 140.949219 260.316406 C 140.625 260.097656 140.285156 259.914062 139.921875 259.765625 C 139.5625 259.617188 139.191406 259.503906 138.808594 259.425781 C 138.425781 259.351562 138.039062 259.3125 137.648438 259.3125 Z M 137.648438 259.3125 " fill-opacity="1" fill-rule="nonzero"/><path fill="#ffffff" d="M 137.648438 199.878906 C 137.257812 199.878906 136.871094 199.917969 136.488281 199.996094 C 136.105469 200.070312 135.734375 200.183594 135.375 200.332031 C 135.015625 200.484375 134.671875 200.664062 134.347656 200.882812 C 134.023438 201.097656 133.722656 201.34375 133.445312 201.621094 C 133.171875 201.898438 132.925781 202.199219 132.707031 202.523438 C 132.492188 202.847656 132.308594 203.1875 132.160156 203.550781 C 132.007812 203.910156 131.894531 204.28125 131.820312 204.664062 C 131.742188 205.046875 131.707031 205.433594 131.707031 205.824219 L 131.707031 235.539062 C 131.707031 235.929688 131.742188 236.316406 131.820312 236.699219 C 131.894531 237.082031 132.007812 237.453125 132.160156 237.816406 C 132.308594 238.175781 132.492188 238.515625 132.707031 238.84375 C 132.925781 239.167969 133.171875 239.464844 133.445312 239.742188 C 133.722656 240.019531 134.023438 240.265625 134.347656 240.480469 C 134.671875 240.699219 135.015625 240.882812 135.375 241.03125 C 135.734375 241.179688 136.105469 241.292969 136.488281 241.367188 C 136.871094 241.445312 137.257812 241.484375 137.648438 241.484375 C 138.039062 241.484375 138.425781 241.445312 138.808594 241.367188 C 139.191406 241.292969 139.5625 241.179688 139.921875 241.03125 C 140.285156 240.882812 140.625 240.699219 140.949219 240.480469 C 141.273438 240.265625 141.574219 240.019531 141.851562 239.742188 C 142.128906 239.464844 142.375 239.167969 142.589844 238.84375 C 142.808594 238.515625 142.992188 238.175781 143.140625 237.816406 C 143.289062 237.453125 143.402344 237.082031 143.476562 236.699219 C 143.554688 236.316406 143.59375 235.929688 143.59375 235.539062 L 143.59375 205.824219 C 143.59375 205.433594 143.554688 205.046875 143.476562 204.664062 C 143.402344 204.28125 143.289062 203.910156 143.140625 203.550781 C 142.992188 203.1875 142.808594 202.847656 142.589844 202.523438 C 142.375 202.199219 142.128906 201.898438 141.851562 201.621094 C 141.574219 201.34375 141.273438 201.097656 140.949219 200.882812 C 140.625 200.664062 140.285156 200.484375 139.921875 200.332031 C 139.5625 200.183594 139.191406 200.070312 138.808594 199.996094 C 138.425781 199.917969 138.039062 199.878906 137.648438 199.878906 Z M 137.648438 199.878906 " fill-opacity="1" fill-rule="nonzero"/><g clip-path="url(#c415b58cd0)"><path fill="#ffffff" d="M 363.492188 211.765625 C 363.882812 211.765625 364.269531 211.730469 364.652344 211.652344 C 365.035156 211.578125 365.40625 211.464844 365.765625 211.316406 C 366.125 211.164062 366.46875 210.980469 366.792969 210.765625 C 367.117188 210.546875 367.417969 210.300781 367.695312 210.027344 C 367.96875 209.75 368.214844 209.449219 368.433594 209.125 C 368.648438 208.800781 368.832031 208.457031 368.980469 208.097656 C 369.132812 207.738281 369.242188 207.367188 369.320312 206.984375 C 369.394531 206.601562 369.433594 206.214844 369.433594 205.824219 L 369.433594 170.164062 C 369.429688 168.238281 369.113281 166.359375 368.492188 164.535156 C 367.871094 162.710938 366.976562 161.03125 365.804688 159.5 C 366.355469 158.664062 366.84375 157.796875 367.273438 156.898438 C 367.703125 155.996094 368.070312 155.070312 368.371094 154.117188 C 368.671875 153.167969 368.90625 152.199219 369.070312 151.214844 C 369.238281 150.230469 369.335938 149.238281 369.367188 148.242188 C 369.394531 147.246094 369.355469 146.25 369.246094 145.257812 C 369.136719 144.265625 368.960938 143.285156 368.71875 142.316406 C 368.472656 141.347656 368.164062 140.402344 367.785156 139.476562 C 367.410156 138.554688 366.972656 137.660156 366.472656 136.796875 L 353.265625 113.921875 C 353.070312 113.582031 352.84375 113.269531 352.585938 112.972656 C 352.332031 112.679688 352.046875 112.414062 351.738281 112.179688 C 351.425781 111.941406 351.097656 111.734375 350.746094 111.5625 C 350.398438 111.390625 350.035156 111.253906 349.65625 111.152344 C 349.28125 111.050781 348.898438 110.988281 348.507812 110.960938 C 348.117188 110.9375 347.730469 110.949219 347.34375 111 C 346.957031 111.050781 346.578125 111.140625 346.207031 111.265625 C 345.839844 111.390625 345.484375 111.550781 345.148438 111.746094 C 329.65625 121.121094 307.863281 115.285156 299.140625 99.417969 C 289.765625 83.925781 295.601562 62.140625 311.46875 53.417969 C 311.804688 53.21875 312.121094 52.992188 312.410156 52.734375 C 312.703125 52.476562 312.96875 52.191406 313.203125 51.882812 C 313.4375 51.570312 313.644531 51.242188 313.816406 50.890625 C 313.988281 50.542969 314.125 50.179688 314.222656 49.804688 C 314.324219 49.425781 314.386719 49.042969 314.414062 48.65625 C 314.441406 48.265625 314.429688 47.878906 314.378906 47.492188 C 314.328125 47.105469 314.242188 46.726562 314.121094 46.359375 C 313.996094 45.988281 313.839844 45.636719 313.644531 45.296875 L 297.796875 17.851562 C 293.519531 10.0625 282.84375 7.21875 275.246094 11.800781 L 31.835938 152.335938 L 30.671875 152.335938 C 30.085938 152.335938 29.503906 152.363281 28.925781 152.421875 C 28.34375 152.480469 27.765625 152.566406 27.195312 152.679688 C 26.621094 152.796875 26.054688 152.9375 25.496094 153.105469 C 24.9375 153.277344 24.390625 153.472656 23.851562 153.699219 C 23.3125 153.921875 22.785156 154.171875 22.269531 154.445312 C 21.753906 154.722656 21.253906 155.023438 20.769531 155.347656 C 20.285156 155.671875 19.816406 156.019531 19.367188 156.386719 C 18.914062 156.757812 18.480469 157.148438 18.070312 157.5625 C 17.65625 157.976562 17.265625 158.40625 16.894531 158.859375 C 16.523438 159.308594 16.175781 159.777344 15.851562 160.265625 C 15.527344 160.75 15.226562 161.25 14.953125 161.765625 C 14.675781 162.277344 14.429688 162.804688 14.203125 163.34375 C 13.980469 163.882812 13.785156 164.433594 13.613281 164.992188 C 13.445312 165.550781 13.300781 166.117188 13.1875 166.6875 C 13.074219 167.261719 12.988281 167.835938 12.929688 168.417969 C 12.871094 169 12.84375 169.582031 12.839844 170.164062 L 12.839844 205.824219 C 12.839844 206.214844 12.878906 206.601562 12.957031 206.984375 C 13.03125 207.367188 13.144531 207.738281 13.292969 208.097656 C 13.441406 208.457031 13.625 208.800781 13.84375 209.125 C 14.058594 209.449219 14.304688 209.75 14.582031 210.027344 C 14.859375 210.300781 15.160156 210.546875 15.484375 210.765625 C 15.808594 210.980469 16.148438 211.164062 16.511719 211.316406 C 16.871094 211.464844 17.242188 211.578125 17.625 211.652344 C 18.007812 211.730469 18.394531 211.765625 18.785156 211.765625 C 20.050781 211.765625 21.3125 211.828125 22.570312 211.953125 C 23.832031 212.078125 25.082031 212.261719 26.320312 212.507812 C 27.5625 212.757812 28.789062 213.0625 30 213.429688 C 31.210938 213.796875 32.398438 214.222656 33.566406 214.707031 C 34.738281 215.191406 35.878906 215.730469 36.996094 216.328125 C 38.109375 216.925781 39.195312 217.574219 40.246094 218.277344 C 41.300781 218.980469 42.3125 219.734375 43.292969 220.535156 C 44.269531 221.339844 45.207031 222.1875 46.101562 223.082031 C 46.996094 223.976562 47.84375 224.914062 48.648438 225.890625 C 49.449219 226.867188 50.203125 227.882812 50.90625 228.9375 C 51.609375 229.988281 52.257812 231.070312 52.855469 232.1875 C 53.449219 233.304688 53.992188 234.445312 54.476562 235.613281 C 54.960938 236.785156 55.386719 237.972656 55.753906 239.183594 C 56.121094 240.394531 56.425781 241.621094 56.671875 242.863281 C 56.921875 244.101562 57.105469 245.351562 57.230469 246.613281 C 57.355469 247.871094 57.414062 249.132812 57.414062 250.398438 C 57.414062 251.664062 57.355469 252.925781 57.230469 254.183594 C 57.105469 255.445312 56.921875 256.695312 56.671875 257.933594 C 56.425781 259.175781 56.121094 260.402344 55.753906 261.613281 C 55.386719 262.824219 54.960938 264.011719 54.476562 265.179688 C 53.992188 266.351562 53.449219 267.492188 52.855469 268.609375 C 52.257812 269.722656 51.609375 270.808594 50.90625 271.859375 C 50.203125 272.914062 49.449219 273.925781 48.648438 274.90625 C 47.84375 275.882812 46.996094 276.820312 46.101562 277.714844 C 45.207031 278.609375 44.269531 279.457031 43.292969 280.261719 C 42.3125 281.0625 41.300781 281.816406 40.246094 282.519531 C 39.195312 283.222656 38.109375 283.871094 36.996094 284.46875 C 35.878906 285.0625 34.738281 285.605469 33.566406 286.089844 C 32.398438 286.574219 31.210938 287 30 287.367188 C 28.789062 287.734375 27.5625 288.039062 26.320312 288.285156 C 25.082031 288.535156 23.832031 288.71875 22.570312 288.84375 C 21.3125 288.96875 20.050781 289.027344 18.785156 289.027344 C 18.394531 289.027344 18.007812 289.066406 17.625 289.144531 C 17.242188 289.21875 16.871094 289.332031 16.511719 289.480469 C 16.148438 289.628906 15.808594 289.8125 15.484375 290.03125 C 15.160156 290.246094 14.859375 290.492188 14.582031 290.769531 C 14.304688 291.046875 14.058594 291.347656 13.84375 291.671875 C 13.625 291.996094 13.441406 292.335938 13.292969 292.699219 C 13.144531 293.058594 13.03125 293.429688 12.957031 293.8125 C 12.878906 294.195312 12.839844 294.582031 12.839844 294.972656 L 12.839844 324.6875 C 12.84375 325.464844 12.882812 326.242188 12.957031 327.019531 C 13.035156 327.792969 13.148438 328.5625 13.300781 329.324219 C 13.453125 330.085938 13.644531 330.839844 13.871094 331.585938 C 14.097656 332.332031 14.359375 333.0625 14.65625 333.78125 C 14.957031 334.5 15.289062 335.203125 15.65625 335.890625 C 16.023438 336.574219 16.421875 337.242188 16.855469 337.890625 C 17.289062 338.535156 17.75 339.160156 18.246094 339.761719 C 18.738281 340.363281 19.261719 340.941406 19.8125 341.492188 C 20.363281 342.042969 20.9375 342.5625 21.539062 343.058594 C 22.140625 343.550781 22.765625 344.015625 23.414062 344.445312 C 24.058594 344.878906 24.726562 345.28125 25.414062 345.648438 C 26.097656 346.015625 26.800781 346.347656 27.519531 346.644531 C 28.238281 346.941406 28.972656 347.207031 29.714844 347.433594 C 30.460938 347.660156 31.214844 347.847656 31.976562 348 C 32.742188 348.152344 33.511719 348.265625 34.285156 348.34375 C 35.058594 348.421875 35.835938 348.460938 36.613281 348.460938 L 345.660156 348.460938 C 346.441406 348.460938 347.214844 348.421875 347.992188 348.34375 C 348.765625 348.265625 349.535156 348.152344 350.296875 348 C 351.0625 347.847656 351.816406 347.660156 352.558594 347.433594 C 353.304688 347.207031 354.035156 346.941406 354.753906 346.644531 C 355.472656 346.347656 356.175781 346.015625 356.863281 345.648438 C 357.550781 345.28125 358.214844 344.878906 358.863281 344.445312 C 359.511719 344.015625 360.132812 343.550781 360.734375 343.058594 C 361.335938 342.5625 361.914062 342.042969 362.464844 341.492188 C 363.015625 340.941406 363.535156 340.363281 364.03125 339.761719 C 364.523438 339.160156 364.988281 338.535156 365.421875 337.890625 C 365.851562 337.242188 366.253906 336.574219 366.621094 335.890625 C 366.988281 335.203125 367.320312 334.5 367.617188 333.78125 C 367.917969 333.0625 368.179688 332.332031 368.40625 331.585938 C 368.632812 330.839844 368.820312 330.085938 368.972656 329.324219 C 369.125 328.5625 369.242188 327.792969 369.316406 327.019531 C 369.394531 326.242188 369.433594 325.464844 369.433594 324.6875 L 369.433594 294.972656 C 369.433594 294.582031 369.394531 294.195312 369.320312 293.8125 C 369.242188 293.429688 369.132812 293.058594 368.980469 292.699219 C 368.832031 292.335938 368.648438 291.996094 368.433594 291.671875 C 368.214844 291.347656 367.96875 291.046875 367.695312 290.769531 C 367.417969 290.492188 367.117188 290.246094 366.792969 290.03125 C 366.46875 289.8125 366.125 289.628906 365.765625 289.480469 C 365.40625 289.332031 365.035156 289.21875 364.652344 289.144531 C 364.269531 289.066406 363.882812 289.027344 363.492188 289.027344 C 362.226562 289.027344 360.964844 288.96875 359.703125 288.84375 C 358.445312 288.71875 357.195312 288.535156 355.953125 288.285156 C 354.714844 288.039062 353.488281 287.734375 352.277344 287.367188 C 351.066406 287 349.875 286.574219 348.707031 286.089844 C 347.539062 285.605469 346.398438 285.0625 345.28125 284.46875 C 344.164062 283.871094 343.082031 283.222656 342.027344 282.519531 C 340.976562 281.816406 339.960938 281.0625 338.984375 280.261719 C 338.007812 279.457031 337.070312 278.609375 336.175781 277.714844 C 335.28125 276.820312 334.433594 275.882812 333.628906 274.90625 C 332.828125 273.925781 332.074219 272.914062 331.371094 271.859375 C 330.667969 270.808594 330.019531 269.722656 329.421875 268.609375 C 328.824219 267.492188 328.285156 266.351562 327.800781 265.179688 C 327.316406 264.011719 326.890625 262.824219 326.523438 261.613281 C 326.15625 260.402344 325.847656 259.175781 325.601562 257.933594 C 325.355469 256.695312 325.171875 255.445312 325.046875 254.183594 C 324.921875 252.925781 324.859375 251.664062 324.859375 250.398438 C 324.859375 249.132812 324.921875 247.871094 325.046875 246.613281 C 325.171875 245.351562 325.355469 244.101562 325.601562 242.863281 C 325.847656 241.621094 326.15625 240.394531 326.523438 239.183594 C 326.890625 237.972656 327.316406 236.785156 327.800781 235.613281 C 328.285156 234.445312 328.824219 233.304688 329.421875 232.1875 C 330.019531 231.070312 330.667969 229.988281 331.371094 228.9375 C 332.074219 227.882812 332.828125 226.867188 333.628906 225.890625 C 334.433594 224.914062 335.28125 223.976562 336.175781 223.082031 C 337.070312 222.1875 338.007812 221.339844 338.984375 220.535156 C 339.960938 219.734375 340.976562 218.980469 342.027344 218.277344 C 343.082031 217.574219 344.164062 216.925781 345.28125 216.328125 C 346.398438 215.730469 347.539062 215.191406 348.707031 214.707031 C 349.875 214.222656 351.066406 213.796875 352.277344 213.429688 C 353.488281 213.0625 354.714844 212.757812 355.953125 212.507812 C 357.195312 212.261719 358.445312 212.078125 359.703125 211.953125 C 360.964844 211.828125 362.226562 211.765625 363.492188 211.765625 Z M 281.1875 22.097656 C 281.453125 21.945312 281.726562 21.824219 282.015625 21.726562 C 282.300781 21.628906 282.597656 21.5625 282.898438 21.523438 C 283.199219 21.484375 283.5 21.472656 283.800781 21.492188 C 284.105469 21.515625 284.402344 21.5625 284.695312 21.640625 C 284.988281 21.71875 285.269531 21.828125 285.542969 21.960938 C 285.816406 22.09375 286.070312 22.253906 286.3125 22.4375 C 286.554688 22.621094 286.773438 22.828125 286.972656 23.054688 C 287.175781 23.28125 287.351562 23.527344 287.503906 23.789062 L 300.574219 46.421875 C 282.714844 59.59375 277.332031 86.28125 288.851562 105.363281 C 299.613281 124.875 325.425781 133.574219 345.757812 124.683594 L 356.179688 142.734375 C 356.628906 143.511719 356.964844 144.339844 357.183594 145.210938 C 357.402344 146.082031 357.503906 146.964844 357.476562 147.863281 C 357.453125 148.765625 357.308594 149.640625 357.042969 150.5 C 356.777344 151.359375 356.398438 152.164062 355.90625 152.917969 C 354.496094 152.546875 353.0625 152.351562 351.605469 152.335938 L 55.613281 152.335938 Z M 312.972656 250.398438 C 312.976562 251.929688 313.046875 253.453125 313.1875 254.976562 C 313.328125 256.5 313.535156 258.015625 313.8125 259.519531 C 314.09375 261.023438 314.4375 262.511719 314.851562 263.984375 C 315.261719 265.457031 315.742188 266.910156 316.285156 268.339844 C 316.828125 269.769531 317.4375 271.167969 318.109375 272.542969 C 318.78125 273.917969 319.511719 275.257812 320.304688 276.566406 C 321.101562 277.875 321.949219 279.144531 322.859375 280.375 C 323.765625 281.605469 324.730469 282.792969 325.746094 283.9375 C 326.761719 285.082031 327.828125 286.175781 328.941406 287.222656 C 330.058594 288.269531 331.21875 289.265625 332.421875 290.207031 C 333.628906 291.148438 334.875 292.03125 336.160156 292.859375 C 337.445312 293.6875 338.765625 294.457031 340.121094 295.167969 C 341.476562 295.875 342.863281 296.523438 344.277344 297.105469 C 345.691406 297.6875 347.128906 298.207031 348.589844 298.660156 C 350.050781 299.113281 351.53125 299.496094 353.027344 299.816406 C 354.523438 300.136719 356.027344 300.386719 357.546875 300.566406 L 357.546875 324.6875 C 357.546875 325.46875 357.46875 326.242188 357.316406 327.007812 C 357.164062 327.769531 356.9375 328.515625 356.640625 329.234375 C 356.339844 329.957031 355.972656 330.640625 355.539062 331.289062 C 355.105469 331.9375 354.613281 332.539062 354.0625 333.089844 C 353.511719 333.640625 352.910156 334.132812 352.261719 334.566406 C 351.613281 335 350.929688 335.367188 350.207031 335.667969 C 349.488281 335.964844 348.746094 336.191406 347.980469 336.34375 C 347.214844 336.496094 346.441406 336.574219 345.660156 336.574219 L 143.59375 336.574219 L 143.59375 324.6875 C 143.59375 324.296875 143.554688 323.910156 143.476562 323.527344 C 143.402344 323.144531 143.289062 322.773438 143.140625 322.414062 C 142.992188 322.054688 142.808594 321.710938 142.589844 321.386719 C 142.375 321.0625 142.128906 320.761719 141.851562 320.484375 C 141.574219 320.210938 141.273438 319.964844 140.949219 319.746094 C 140.625 319.53125 140.285156 319.347656 139.921875 319.199219 C 139.5625 319.046875 139.191406 318.933594 138.808594 318.859375 C 138.425781 318.78125 138.039062 318.746094 137.648438 318.746094 C 137.257812 318.746094 136.871094 318.78125 136.488281 318.859375 C 136.105469 318.933594 135.734375 319.046875 135.375 319.199219 C 135.015625 319.347656 134.671875 319.53125 134.347656 319.746094 C 134.023438 319.964844 133.722656 320.210938 133.445312 320.484375 C 133.171875 320.761719 132.925781 321.0625 132.707031 321.386719 C 132.492188 321.710938 132.308594 322.054688 132.160156 322.414062 C 132.007812 322.773438 131.894531 323.144531 131.820312 323.527344 C 131.742188 323.910156 131.707031 324.296875 131.707031 324.6875 L 131.707031 336.574219 L 36.613281 336.574219 C 35.835938 336.574219 35.0625 336.496094 34.296875 336.34375 C 33.53125 336.191406 32.789062 335.964844 32.066406 335.667969 C 31.347656 335.367188 30.664062 335 30.015625 334.566406 C 29.367188 334.132812 28.765625 333.640625 28.214844 333.089844 C 27.660156 332.539062 27.167969 331.9375 26.734375 331.289062 C 26.300781 330.640625 25.9375 329.957031 25.636719 329.234375 C 25.335938 328.515625 25.113281 327.769531 24.957031 327.007812 C 24.804688 326.242188 24.730469 325.46875 24.726562 324.6875 L 24.726562 300.566406 C 26.246094 300.386719 27.757812 300.140625 29.253906 299.824219 C 30.75 299.507812 32.230469 299.121094 33.695312 298.671875 C 35.15625 298.21875 36.597656 297.703125 38.011719 297.121094 C 39.425781 296.539062 40.8125 295.894531 42.171875 295.1875 C 43.527344 294.480469 44.847656 293.710938 46.136719 292.882812 C 47.425781 292.054688 48.671875 291.171875 49.878906 290.230469 C 51.085938 289.289062 52.246094 288.292969 53.363281 287.246094 C 54.480469 286.199219 55.546875 285.105469 56.5625 283.960938 C 57.578125 282.816406 58.542969 281.628906 59.449219 280.398438 C 60.359375 279.164062 61.210938 277.894531 62.003906 276.585938 C 62.796875 275.277344 63.53125 273.933594 64.203125 272.558594 C 64.875 271.183594 65.480469 269.78125 66.023438 268.351562 C 66.570312 266.921875 67.046875 265.46875 67.457031 263.992188 C 67.871094 262.519531 68.214844 261.03125 68.492188 259.523438 C 68.769531 258.019531 68.976562 256.503906 69.113281 254.980469 C 69.253906 253.457031 69.324219 251.929688 69.324219 250.398438 C 69.324219 248.867188 69.253906 247.339844 69.113281 245.816406 C 68.976562 244.292969 68.769531 242.777344 68.492188 241.273438 C 68.214844 239.765625 67.871094 238.277344 67.457031 236.800781 C 67.046875 235.328125 66.570312 233.875 66.023438 232.445312 C 65.480469 231.015625 64.875 229.613281 64.203125 228.234375 C 63.53125 226.859375 62.796875 225.519531 62.003906 224.210938 C 61.210938 222.902344 60.359375 221.632812 59.449219 220.398438 C 58.542969 219.167969 57.578125 217.980469 56.5625 216.835938 C 55.546875 215.691406 54.480469 214.597656 53.363281 213.550781 C 52.246094 212.503906 51.085938 211.507812 49.878906 210.566406 C 48.671875 209.625 47.425781 208.742188 46.136719 207.914062 C 44.847656 207.085938 43.527344 206.316406 42.171875 205.609375 C 40.8125 204.902344 39.425781 204.257812 38.011719 203.675781 C 36.597656 203.09375 35.15625 202.574219 33.695312 202.125 C 32.230469 201.671875 30.75 201.289062 29.253906 200.972656 C 27.757812 200.65625 26.246094 200.410156 24.726562 200.230469 L 24.726562 170.164062 C 24.726562 169.773438 24.765625 169.386719 24.84375 169.007812 C 24.921875 168.625 25.03125 168.25 25.183594 167.890625 C 25.332031 167.53125 25.515625 167.1875 25.730469 166.863281 C 25.949219 166.539062 26.195312 166.242188 26.472656 165.964844 C 26.746094 165.6875 27.046875 165.441406 27.371094 165.226562 C 27.695312 165.007812 28.039062 164.824219 28.398438 164.675781 C 28.757812 164.527344 29.128906 164.414062 29.511719 164.335938 C 29.894531 164.261719 30.28125 164.222656 30.671875 164.222656 L 131.707031 164.222656 L 131.707031 176.109375 C 131.707031 176.5 131.742188 176.882812 131.820312 177.265625 C 131.894531 177.648438 132.007812 178.023438 132.160156 178.382812 C 132.308594 178.742188 132.492188 179.085938 132.707031 179.410156 C 132.925781 179.734375 133.171875 180.035156 133.445312 180.308594 C 133.722656 180.585938 134.023438 180.832031 134.347656 181.050781 C 134.671875 181.265625 135.015625 181.449219 135.375 181.597656 C 135.734375 181.75 136.105469 181.859375 136.488281 181.9375 C 136.871094 182.011719 137.257812 182.050781 137.648438 182.050781 C 138.039062 182.050781 138.425781 182.011719 138.808594 181.9375 C 139.191406 181.859375 139.5625 181.75 139.921875 181.597656 C 140.285156 181.449219 140.625 181.265625 140.949219 181.050781 C 141.273438 180.832031 141.574219 180.585938 141.851562 180.308594 C 142.128906 180.035156 142.375 179.734375 142.589844 179.410156 C 142.808594 179.085938 142.992188 178.742188 143.140625 178.382812 C 143.289062 178.023438 143.402344 177.648438 143.476562 177.265625 C 143.554688 176.882812 143.59375 176.5 143.59375 176.109375 L 143.59375 164.222656 L 351.605469 164.222656 C 351.996094 164.222656 352.382812 164.261719 352.765625 164.335938 C 353.144531 164.414062 353.519531 164.527344 353.878906 164.675781 C 354.238281 164.824219 354.582031 165.007812 354.90625 165.226562 C 355.230469 165.441406 355.527344 165.6875 355.804688 165.964844 C 356.082031 166.242188 356.328125 166.539062 356.542969 166.863281 C 356.761719 167.1875 356.945312 167.53125 357.09375 167.890625 C 357.242188 168.25 357.355469 168.625 357.433594 169.003906 C 357.507812 169.386719 357.546875 169.773438 357.546875 170.164062 L 357.546875 200.230469 C 356.027344 200.410156 354.523438 200.660156 353.027344 200.980469 C 351.53125 201.300781 350.050781 201.683594 348.589844 202.136719 C 347.128906 202.589844 345.691406 203.109375 344.277344 203.691406 C 342.863281 204.273438 341.476562 204.921875 340.121094 205.628906 C 338.765625 206.339844 337.445312 207.105469 336.160156 207.933594 C 334.875 208.765625 333.628906 209.648438 332.421875 210.589844 C 331.21875 211.53125 330.058594 212.527344 328.941406 213.574219 C 327.828125 214.621094 326.761719 215.714844 325.746094 216.859375 C 324.730469 218.003906 323.765625 219.191406 322.859375 220.421875 C 321.949219 221.652344 321.097656 222.921875 320.304688 224.230469 C 319.511719 225.535156 318.78125 226.878906 318.109375 228.253906 C 317.4375 229.625 316.828125 231.027344 316.285156 232.457031 C 315.742188 233.886719 315.261719 235.339844 314.851562 236.8125 C 314.4375 238.285156 314.09375 239.773438 313.8125 241.277344 C 313.535156 242.78125 313.328125 244.296875 313.1875 245.820312 C 313.046875 247.34375 312.976562 248.867188 312.972656 250.398438 Z M 312.972656 250.398438 " fill-opacity="1" fill-rule="nonzero"/></g><path fill="#ffffff" d="M 203.023438 241.484375 C 203.804688 241.484375 204.578125 241.445312 205.355469 241.367188 C 206.128906 241.292969 206.898438 241.179688 207.664062 241.027344 C 208.425781 240.875 209.179688 240.6875 209.925781 240.460938 C 210.671875 240.234375 211.402344 239.972656 212.121094 239.671875 C 212.839844 239.375 213.542969 239.042969 214.230469 238.675781 C 214.917969 238.308594 215.585938 237.910156 216.230469 237.476562 C 216.878906 237.042969 217.503906 236.582031 218.105469 236.085938 C 218.707031 235.59375 219.285156 235.070312 219.835938 234.519531 C 220.386719 233.96875 220.90625 233.394531 221.402344 232.792969 C 221.894531 232.191406 222.359375 231.566406 222.789062 230.917969 C 223.222656 230.269531 223.625 229.605469 223.988281 228.917969 C 224.355469 228.230469 224.691406 227.527344 224.988281 226.808594 C 225.285156 226.089844 225.546875 225.355469 225.773438 224.613281 C 226 223.867188 226.1875 223.113281 226.339844 222.347656 C 226.492188 221.585938 226.605469 220.816406 226.683594 220.039062 C 226.757812 219.265625 226.796875 218.488281 226.796875 217.710938 C 226.796875 216.933594 226.757812 216.15625 226.683594 215.378906 C 226.605469 214.605469 226.492188 213.835938 226.339844 213.074219 C 226.1875 212.308594 226 211.554688 225.773438 210.808594 C 225.546875 210.066406 225.285156 209.332031 224.988281 208.613281 C 224.691406 207.894531 224.355469 207.191406 223.988281 206.503906 C 223.625 205.816406 223.222656 205.148438 222.789062 204.503906 C 222.359375 203.855469 221.894531 203.230469 221.402344 202.628906 C 220.90625 202.027344 220.386719 201.449219 219.835938 200.902344 C 219.285156 200.351562 218.707031 199.828125 218.105469 199.332031 C 217.503906 198.839844 216.878906 198.375 216.230469 197.945312 C 215.585938 197.511719 214.917969 197.113281 214.230469 196.746094 C 213.542969 196.378906 212.839844 196.046875 212.121094 195.746094 C 211.402344 195.449219 210.671875 195.1875 209.925781 194.960938 C 209.179688 194.734375 208.425781 194.546875 207.664062 194.394531 C 206.898438 194.242188 206.128906 194.128906 205.355469 194.050781 C 204.578125 193.976562 203.804688 193.9375 203.023438 193.9375 C 202.246094 193.9375 201.46875 193.976562 200.695312 194.050781 C 199.917969 194.128906 199.148438 194.242188 198.386719 194.394531 C 197.621094 194.546875 196.867188 194.734375 196.125 194.960938 C 195.378906 195.1875 194.644531 195.449219 193.925781 195.746094 C 193.207031 196.046875 192.503906 196.378906 191.816406 196.746094 C 191.132812 197.113281 190.464844 197.511719 189.816406 197.945312 C 189.167969 198.375 188.546875 198.839844 187.941406 199.332031 C 187.339844 199.828125 186.765625 200.351562 186.214844 200.902344 C 185.664062 201.449219 185.140625 202.027344 184.648438 202.628906 C 184.152344 203.230469 183.691406 203.855469 183.257812 204.503906 C 182.824219 205.148438 182.425781 205.816406 182.058594 206.503906 C 181.691406 207.191406 181.359375 207.894531 181.0625 208.613281 C 180.761719 209.332031 180.5 210.066406 180.273438 210.808594 C 180.050781 211.554688 179.859375 212.308594 179.707031 213.074219 C 179.554688 213.835938 179.441406 214.605469 179.367188 215.378906 C 179.289062 216.15625 179.25 216.933594 179.25 217.710938 C 179.253906 218.488281 179.292969 219.265625 179.367188 220.039062 C 179.445312 220.8125 179.558594 221.582031 179.710938 222.347656 C 179.863281 223.109375 180.054688 223.863281 180.28125 224.609375 C 180.507812 225.351562 180.769531 226.085938 181.066406 226.804688 C 181.367188 227.523438 181.699219 228.226562 182.066406 228.910156 C 182.433594 229.597656 182.832031 230.265625 183.265625 230.910156 C 183.699219 231.558594 184.160156 232.183594 184.65625 232.785156 C 185.148438 233.386719 185.671875 233.960938 186.222656 234.511719 C 186.773438 235.0625 187.347656 235.585938 187.949219 236.078125 C 188.550781 236.574219 189.175781 237.035156 189.824219 237.46875 C 190.46875 237.902344 191.136719 238.300781 191.824219 238.667969 C 192.507812 239.035156 193.210938 239.367188 193.929688 239.667969 C 194.648438 239.964844 195.382812 240.226562 196.125 240.453125 C 196.871094 240.679688 197.625 240.871094 198.386719 241.023438 C 199.152344 241.175781 199.921875 241.289062 200.695312 241.367188 C 201.46875 241.445312 202.246094 241.484375 203.023438 241.484375 Z M 203.023438 205.824219 C 203.804688 205.824219 204.578125 205.898438 205.34375 206.050781 C 206.109375 206.203125 206.851562 206.429688 207.574219 206.730469 C 208.292969 207.027344 208.980469 207.394531 209.628906 207.828125 C 210.277344 208.261719 210.878906 208.753906 211.429688 209.304688 C 211.980469 209.855469 212.472656 210.457031 212.90625 211.105469 C 213.339844 211.753906 213.707031 212.441406 214.007812 213.160156 C 214.304688 213.882812 214.53125 214.625 214.683594 215.390625 C 214.835938 216.15625 214.910156 216.929688 214.910156 217.710938 C 214.910156 218.492188 214.835938 219.265625 214.683594 220.03125 C 214.53125 220.792969 214.304688 221.539062 214.007812 222.257812 C 213.707031 222.980469 213.339844 223.664062 212.90625 224.3125 C 212.472656 224.964844 211.980469 225.5625 211.429688 226.117188 C 210.878906 226.667969 210.277344 227.160156 209.628906 227.59375 C 208.980469 228.027344 208.292969 228.394531 207.574219 228.691406 C 206.851562 228.992188 206.109375 229.214844 205.34375 229.367188 C 204.578125 229.519531 203.804688 229.597656 203.023438 229.597656 C 202.242188 229.597656 201.472656 229.519531 200.707031 229.367188 C 199.941406 229.214844 199.195312 228.992188 198.476562 228.691406 C 197.753906 228.394531 197.070312 228.027344 196.421875 227.59375 C 195.773438 227.160156 195.171875 226.667969 194.621094 226.117188 C 194.066406 225.5625 193.574219 224.964844 193.140625 224.3125 C 192.707031 223.664062 192.339844 222.980469 192.042969 222.257812 C 191.742188 221.539062 191.519531 220.792969 191.367188 220.03125 C 191.214844 219.265625 191.136719 218.492188 191.136719 217.710938 C 191.140625 216.929688 191.214844 216.15625 191.367188 215.390625 C 191.523438 214.628906 191.746094 213.882812 192.046875 213.164062 C 192.34375 212.441406 192.710938 211.757812 193.144531 211.109375 C 193.578125 210.460938 194.070312 209.863281 194.625 209.308594 C 195.175781 208.757812 195.777344 208.265625 196.425781 207.832031 C 197.074219 207.398438 197.757812 207.03125 198.476562 206.734375 C 199.199219 206.433594 199.941406 206.207031 200.707031 206.054688 C 201.472656 205.902344 202.246094 205.824219 203.023438 205.824219 Z M 203.023438 205.824219 " fill-opacity="1" fill-rule="nonzero"/><path fill="#ffffff" d="M 274.34375 265.257812 C 273.5625 265.257812 272.789062 265.292969 272.011719 265.371094 C 271.238281 265.445312 270.46875 265.5625 269.707031 265.714844 C 268.941406 265.863281 268.1875 266.054688 267.441406 266.28125 C 266.695312 266.503906 265.964844 266.769531 265.246094 267.066406 C 264.527344 267.363281 263.824219 267.695312 263.136719 268.0625 C 262.449219 268.429688 261.78125 268.828125 261.136719 269.261719 C 260.488281 269.695312 259.863281 270.160156 259.261719 270.652344 C 258.660156 271.144531 258.082031 271.667969 257.53125 272.21875 C 256.984375 272.769531 256.460938 273.347656 255.964844 273.949219 C 255.472656 274.550781 255.007812 275.175781 254.578125 275.820312 C 254.144531 276.46875 253.746094 277.136719 253.378906 277.824219 C 253.011719 278.507812 252.675781 279.210938 252.378906 279.929688 C 252.082031 280.652344 251.820312 281.382812 251.59375 282.128906 C 251.367188 282.875 251.179688 283.628906 251.027344 284.390625 C 250.875 285.15625 250.761719 285.925781 250.683594 286.699219 C 250.609375 287.472656 250.570312 288.25 250.570312 289.027344 C 250.570312 289.808594 250.609375 290.585938 250.683594 291.359375 C 250.761719 292.132812 250.875 292.902344 251.027344 293.667969 C 251.179688 294.429688 251.367188 295.183594 251.59375 295.929688 C 251.820312 296.675781 252.082031 297.40625 252.378906 298.125 C 252.675781 298.847656 253.011719 299.546875 253.378906 300.234375 C 253.746094 300.921875 254.144531 301.589844 254.578125 302.238281 C 255.007812 302.882812 255.472656 303.507812 255.964844 304.109375 C 256.460938 304.710938 256.984375 305.289062 257.53125 305.839844 C 258.082031 306.390625 258.660156 306.910156 259.261719 307.40625 C 259.863281 307.898438 260.488281 308.363281 261.136719 308.796875 C 261.78125 309.226562 262.449219 309.628906 263.136719 309.996094 C 263.824219 310.363281 264.527344 310.695312 265.246094 310.992188 C 265.964844 311.289062 266.695312 311.550781 267.441406 311.777344 C 268.1875 312.003906 268.941406 312.191406 269.707031 312.34375 C 270.46875 312.496094 271.238281 312.609375 272.011719 312.6875 C 272.789062 312.765625 273.5625 312.800781 274.34375 312.800781 C 275.121094 312.800781 275.898438 312.765625 276.671875 312.6875 C 277.449219 312.609375 278.21875 312.496094 278.980469 312.34375 C 279.746094 312.191406 280.5 312.003906 281.242188 311.777344 C 281.988281 311.550781 282.722656 311.289062 283.441406 310.992188 C 284.160156 310.695312 284.863281 310.363281 285.550781 309.996094 C 286.234375 309.628906 286.902344 309.226562 287.550781 308.796875 C 288.199219 308.363281 288.824219 307.898438 289.425781 307.40625 C 290.027344 306.910156 290.601562 306.390625 291.152344 305.839844 C 291.703125 305.289062 292.226562 304.710938 292.71875 304.109375 C 293.214844 303.507812 293.675781 302.882812 294.109375 302.238281 C 294.542969 301.589844 294.941406 300.921875 295.308594 300.234375 C 295.675781 299.546875 296.007812 298.847656 296.304688 298.125 C 296.605469 297.40625 296.867188 296.675781 297.09375 295.929688 C 297.316406 295.183594 297.507812 294.429688 297.660156 293.667969 C 297.8125 292.902344 297.925781 292.132812 298 291.359375 C 298.078125 290.585938 298.117188 289.808594 298.117188 289.027344 C 298.113281 288.25 298.074219 287.472656 298 286.699219 C 297.921875 285.925781 297.808594 285.15625 297.65625 284.394531 C 297.503906 283.628906 297.3125 282.875 297.085938 282.132812 C 296.859375 281.386719 296.597656 280.65625 296.300781 279.933594 C 296 279.214844 295.667969 278.515625 295.300781 277.828125 C 294.933594 277.140625 294.535156 276.472656 294.101562 275.828125 C 293.667969 275.179688 293.207031 274.554688 292.710938 273.953125 C 292.21875 273.351562 291.695312 272.777344 291.144531 272.226562 C 290.59375 271.675781 290.019531 271.152344 289.417969 270.660156 C 288.816406 270.167969 288.191406 269.703125 287.542969 269.269531 C 286.898438 268.835938 286.230469 268.4375 285.542969 268.070312 C 284.859375 267.703125 284.15625 267.371094 283.4375 267.074219 C 282.71875 266.773438 281.984375 266.511719 281.242188 266.285156 C 280.496094 266.058594 279.742188 265.871094 278.980469 265.71875 C 278.214844 265.566406 277.445312 265.449219 276.671875 265.371094 C 275.898438 265.296875 275.121094 265.257812 274.34375 265.257812 Z M 274.34375 300.914062 C 273.5625 300.914062 272.789062 300.839844 272.023438 300.6875 C 271.257812 300.535156 270.515625 300.308594 269.792969 300.011719 C 269.074219 299.710938 268.386719 299.347656 267.738281 298.914062 C 267.089844 298.480469 266.488281 297.984375 265.9375 297.433594 C 265.386719 296.882812 264.894531 296.28125 264.460938 295.632812 C 264.027344 294.984375 263.660156 294.296875 263.363281 293.578125 C 263.0625 292.855469 262.835938 292.113281 262.683594 291.347656 C 262.53125 290.582031 262.457031 289.808594 262.457031 289.027344 C 262.457031 288.25 262.53125 287.476562 262.683594 286.710938 C 262.835938 285.945312 263.0625 285.203125 263.363281 284.480469 C 263.660156 283.757812 264.027344 283.074219 264.460938 282.425781 C 264.894531 281.777344 265.386719 281.175781 265.9375 280.625 C 266.488281 280.070312 267.089844 279.578125 267.738281 279.144531 C 268.386719 278.710938 269.074219 278.347656 269.792969 278.046875 C 270.515625 277.75 271.257812 277.523438 272.023438 277.371094 C 272.789062 277.21875 273.5625 277.144531 274.34375 277.144531 C 275.125 277.144531 275.894531 277.21875 276.660156 277.371094 C 277.425781 277.523438 278.171875 277.75 278.890625 278.046875 C 279.613281 278.347656 280.296875 278.710938 280.945312 279.144531 C 281.59375 279.578125 282.195312 280.070312 282.746094 280.625 C 283.300781 281.175781 283.792969 281.777344 284.226562 282.425781 C 284.660156 283.074219 285.027344 283.757812 285.324219 284.480469 C 285.625 285.203125 285.847656 285.945312 286 286.710938 C 286.152344 287.476562 286.230469 288.25 286.230469 289.027344 C 286.226562 289.808594 286.152344 290.582031 286 291.347656 C 285.847656 292.113281 285.621094 292.855469 285.320312 293.574219 C 285.023438 294.296875 284.65625 294.980469 284.222656 295.628906 C 283.789062 296.277344 283.296875 296.878906 282.742188 297.429688 C 282.191406 297.980469 281.59375 298.472656 280.945312 298.90625 C 280.292969 299.339844 279.609375 299.707031 278.890625 300.007812 C 278.167969 300.304688 277.425781 300.53125 276.660156 300.683594 C 275.894531 300.835938 275.125 300.914062 274.34375 300.914062 Z M 274.34375 300.914062 " fill-opacity="1" fill-rule="nonzero"/><path fill="#ffffff" d="M 184.492188 289.027344 C 184.492188 291.488281 184.960938 293.855469 185.898438 296.125 C 186.835938 298.398438 188.171875 300.40625 189.90625 302.148438 C 196.890625 309.28125 209.25 309.308594 216.117188 302.070312 L 286.949219 230.324219 C 293.863281 223.6875 293.796875 211.816406 286.957031 205.109375 C 280.152344 198.441406 268.429688 198.394531 261.765625 205.082031 L 189.984375 275.941406 C 188.226562 277.667969 186.875 279.664062 185.921875 281.933594 C 184.972656 284.203125 184.496094 286.566406 184.492188 289.027344 Z M 198.335938 284.398438 L 270.148438 213.507812 C 270.421875 213.21875 270.71875 212.960938 271.046875 212.730469 C 271.371094 212.503906 271.71875 212.308594 272.082031 212.148438 C 272.445312 211.988281 272.824219 211.867188 273.210938 211.78125 C 273.601562 211.699219 273.996094 211.65625 274.394531 211.648438 C 274.792969 211.644531 275.1875 211.679688 275.578125 211.753906 C 275.96875 211.828125 276.347656 211.941406 276.714844 212.09375 C 277.085938 212.242188 277.433594 212.429688 277.765625 212.652344 C 278.097656 212.871094 278.402344 213.125 278.683594 213.40625 C 278.964844 213.6875 279.210938 213.996094 279.429688 214.328125 C 279.648438 214.664062 279.832031 215.011719 279.980469 215.382812 C 280.128906 215.753906 280.238281 216.132812 280.3125 216.523438 C 280.382812 216.917969 280.414062 217.3125 280.40625 217.710938 C 280.398438 218.105469 280.351562 218.5 280.265625 218.890625 C 280.175781 219.277344 280.054688 219.652344 279.890625 220.015625 C 279.726562 220.378906 279.53125 220.722656 279.300781 221.046875 C 279.070312 221.371094 278.808594 221.667969 278.515625 221.941406 L 207.660156 293.714844 C 207.355469 294.023438 207.023438 294.296875 206.664062 294.535156 C 206.304688 294.777344 205.921875 294.980469 205.523438 295.144531 C 205.125 295.3125 204.710938 295.4375 204.289062 295.523438 C 203.863281 295.605469 203.433594 295.648438 203 295.648438 C 202.570312 295.648438 202.140625 295.605469 201.714844 295.523438 C 201.289062 295.4375 200.878906 295.3125 200.476562 295.148438 C 200.078125 294.984375 199.699219 294.78125 199.339844 294.539062 C 198.980469 294.300781 198.644531 294.027344 198.339844 293.71875 C 198.03125 293.414062 197.757812 293.082031 197.519531 292.722656 C 197.277344 292.363281 197.074219 291.980469 196.910156 291.582031 C 196.742188 291.183594 196.617188 290.769531 196.535156 290.347656 C 196.449219 289.921875 196.40625 289.492188 196.40625 289.058594 C 196.40625 288.628906 196.449219 288.199219 196.53125 287.773438 C 196.617188 287.347656 196.742188 286.9375 196.90625 286.535156 C 197.074219 286.136719 197.277344 285.757812 197.515625 285.398438 C 197.757812 285.035156 198.03125 284.703125 198.335938 284.398438 Z M 198.335938 284.398438 " fill-opacity="1" fill-rule="nonzero"/></svg>