<svg xmlns="http://www.w3.org/2000/svg" xmlns:xlink="http://www.w3.org/1999/xlink" width="500" zoomAndPan="magnify" viewBox="0 0 375 374.999991" height="500" preserveAspectRatio="xMidYMid meet" version="1.0"><defs><clipPath id="3a5a9a3d1e"><path d="M 7.425781 47 L 368.925781 47 L 368.925781 349.90625 L 7.425781 349.90625 Z M 7.425781 47 " clip-rule="nonzero"/></clipPath><clipPath id="2d84a672d2"><path d="M 7.425781 47 L 368.925781 47 L 368.925781 106 L 7.425781 106 Z M 7.425781 47 " clip-rule="nonzero"/></clipPath></defs><g clip-path="url(#3a5a9a3d1e)"><path fill="#ffffff" d="M 273.441406 47.25 L 273.441406 54.773438 L 317.539062 54.773438 L 317.539062 47.25 Z M 140.132812 47.25 L 140.132812 54.773438 L 184.230469 54.773438 L 184.230469 47.25 Z M 340.113281 47.285156 L 340.113281 54.8125 C 340.8125 54.839844 341.507812 54.902344 342.199219 54.996094 C 342.890625 55.089844 343.574219 55.21875 344.253906 55.378906 C 344.933594 55.539062 345.605469 55.730469 346.265625 55.957031 C 346.925781 56.179688 347.574219 56.4375 348.210938 56.722656 C 348.847656 57.007812 349.46875 57.324219 350.074219 57.671875 C 350.679688 58.019531 351.269531 58.390625 351.839844 58.792969 C 352.410156 59.195312 352.960938 59.625 353.488281 60.082031 C 354.019531 60.535156 354.527344 61.015625 355.007812 61.519531 C 355.492188 62.023438 355.949219 62.546875 356.382812 63.09375 C 356.816406 63.640625 357.222656 64.207031 357.601562 64.796875 C 357.980469 65.382812 358.332031 65.984375 358.652344 66.605469 C 358.972656 67.222656 359.265625 67.855469 359.527344 68.503906 C 359.785156 69.152344 360.015625 69.8125 360.214844 70.480469 C 360.410156 71.148438 360.578125 71.828125 360.710938 72.511719 C 360.84375 73.199219 360.941406 73.886719 361.007812 74.582031 C 361.074219 75.277344 361.109375 75.972656 361.109375 76.671875 L 361.109375 319.773438 C 361.109375 320.488281 361.074219 321.203125 361.003906 321.914062 C 360.933594 322.628906 360.828125 323.335938 360.6875 324.039062 C 360.546875 324.742188 360.375 325.433594 360.167969 326.121094 C 359.957031 326.804688 359.71875 327.480469 359.441406 328.140625 C 359.167969 328.804688 358.863281 329.449219 358.527344 330.082031 C 358.1875 330.714844 357.820312 331.328125 357.421875 331.921875 C 357.027344 332.519531 356.601562 333.09375 356.144531 333.648438 C 355.691406 334.203125 355.210938 334.734375 354.707031 335.238281 C 354.199219 335.746094 353.667969 336.226562 353.117188 336.683594 C 352.5625 337.136719 351.988281 337.5625 351.394531 337.964844 C 350.800781 338.363281 350.1875 338.730469 349.554688 339.070312 C 348.921875 339.40625 348.277344 339.714844 347.617188 339.988281 C 346.953125 340.265625 346.28125 340.507812 345.597656 340.714844 C 344.910156 340.925781 344.21875 341.101562 343.515625 341.242188 C 342.8125 341.382812 342.105469 341.488281 341.390625 341.558594 C 340.679688 341.632812 339.964844 341.667969 339.25 341.671875 L 36.8125 341.671875 C 36.097656 341.667969 35.382812 341.632812 34.667969 341.5625 C 33.957031 341.492188 33.25 341.386719 32.546875 341.246094 C 31.84375 341.105469 31.148438 340.929688 30.464844 340.722656 C 29.777344 340.511719 29.105469 340.269531 28.441406 339.996094 C 27.78125 339.71875 27.132812 339.414062 26.503906 339.074219 C 25.871094 338.738281 25.257812 338.367188 24.664062 337.96875 C 24.066406 337.570312 23.492188 337.144531 22.9375 336.691406 C 22.386719 336.234375 21.855469 335.753906 21.351562 335.246094 C 20.84375 334.738281 20.363281 334.207031 19.910156 333.65625 C 19.457031 333.101562 19.03125 332.523438 18.632812 331.929688 C 18.234375 331.332031 17.867188 330.71875 17.53125 330.085938 C 17.191406 329.453125 16.886719 328.808594 16.613281 328.144531 C 16.339844 327.484375 16.097656 326.808594 15.890625 326.125 C 15.683594 325.4375 15.511719 324.742188 15.371094 324.039062 C 15.230469 323.335938 15.125 322.628906 15.058594 321.917969 C 14.988281 321.203125 14.953125 320.488281 14.953125 319.773438 L 14.953125 76.671875 C 14.953125 75.957031 14.988281 75.242188 15.058594 74.527344 C 15.125 73.816406 15.230469 73.105469 15.371094 72.402344 C 15.511719 71.699219 15.683594 71.007812 15.890625 70.320312 C 16.097656 69.636719 16.339844 68.960938 16.613281 68.300781 C 16.886719 67.636719 17.191406 66.988281 17.53125 66.359375 C 17.867188 65.726562 18.234375 65.109375 18.632812 64.515625 C 19.03125 63.917969 19.457031 63.34375 19.910156 62.789062 C 20.363281 62.234375 20.84375 61.703125 21.351562 61.199219 C 21.855469 60.691406 22.386719 60.210938 22.9375 59.753906 C 23.492188 59.300781 24.066406 58.871094 24.664062 58.472656 C 25.257812 58.074219 25.871094 57.707031 26.503906 57.367188 C 27.132812 57.03125 27.78125 56.722656 28.441406 56.449219 C 29.105469 56.171875 29.777344 55.933594 30.464844 55.722656 C 31.148438 55.515625 31.84375 55.339844 32.546875 55.199219 C 33.25 55.058594 33.957031 54.953125 34.667969 54.882812 C 35.382812 54.8125 36.097656 54.773438 36.8125 54.773438 L 50.921875 54.773438 L 50.921875 47.25 L 36.8125 47.25 C 35.851562 47.25 34.890625 47.300781 33.933594 47.394531 C 32.972656 47.492188 32.023438 47.632812 31.078125 47.824219 C 30.136719 48.011719 29.203125 48.246094 28.28125 48.527344 C 27.359375 48.808594 26.457031 49.132812 25.566406 49.503906 C 24.675781 49.871094 23.808594 50.285156 22.960938 50.738281 C 22.113281 51.191406 21.289062 51.6875 20.488281 52.222656 C 19.6875 52.757812 18.914062 53.332031 18.171875 53.945312 C 17.429688 54.554688 16.714844 55.203125 16.035156 55.882812 C 15.355469 56.566406 14.710938 57.277344 14.097656 58.023438 C 13.488281 58.765625 12.917969 59.539062 12.382812 60.339844 C 11.847656 61.140625 11.351562 61.964844 10.898438 62.816406 C 10.445312 63.664062 10.035156 64.53125 9.667969 65.421875 C 9.296875 66.3125 8.972656 67.21875 8.695312 68.140625 C 8.414062 69.058594 8.183594 69.992188 7.992188 70.9375 C 7.804688 71.882812 7.664062 72.832031 7.570312 73.789062 C 7.476562 74.75 7.429688 75.710938 7.425781 76.671875 L 7.425781 319.773438 C 7.429688 320.734375 7.476562 321.695312 7.570312 322.652344 C 7.664062 323.609375 7.804688 324.5625 7.992188 325.507812 C 8.183594 326.449219 8.414062 327.382812 8.695312 328.304688 C 8.972656 329.226562 9.296875 330.132812 9.667969 331.019531 C 10.035156 331.910156 10.445312 332.78125 10.898438 333.628906 C 11.351562 334.480469 11.847656 335.304688 12.382812 336.105469 C 12.917969 336.90625 13.488281 337.675781 14.097656 338.421875 C 14.710938 339.167969 15.355469 339.878906 16.035156 340.5625 C 16.714844 341.242188 17.429688 341.886719 18.171875 342.5 C 18.914062 343.109375 19.6875 343.683594 20.488281 344.21875 C 21.289062 344.753906 22.113281 345.25 22.960938 345.707031 C 23.808594 346.160156 24.675781 346.570312 25.566406 346.941406 C 26.457031 347.3125 27.359375 347.636719 28.28125 347.917969 C 29.203125 348.199219 30.136719 348.433594 31.078125 348.621094 C 32.023438 348.8125 32.972656 348.953125 33.933594 349.050781 C 34.890625 349.144531 35.851562 349.195312 36.8125 349.195312 L 339.25 349.195312 C 340.210938 349.195312 341.171875 349.144531 342.128906 349.050781 C 343.089844 348.953125 344.039062 348.8125 344.984375 348.621094 C 345.925781 348.433594 346.859375 348.199219 347.78125 347.917969 C 348.703125 347.636719 349.605469 347.3125 350.496094 346.941406 C 351.382812 346.570312 352.253906 346.160156 353.101562 345.707031 C 353.949219 345.25 354.773438 344.753906 355.574219 344.21875 C 356.375 343.683594 357.148438 343.109375 357.890625 342.5 C 358.632812 341.886719 359.347656 341.242188 360.027344 340.5625 C 360.707031 339.878906 361.351562 339.167969 361.960938 338.421875 C 362.574219 337.675781 363.144531 336.90625 363.679688 336.105469 C 364.214844 335.304688 364.707031 334.480469 365.164062 333.628906 C 365.617188 332.78125 366.027344 331.910156 366.394531 331.019531 C 366.761719 330.132812 367.085938 329.226562 367.367188 328.304688 C 367.648438 327.382812 367.878906 326.449219 368.066406 325.507812 C 368.257812 324.5625 368.398438 323.609375 368.492188 322.652344 C 368.585938 321.695312 368.632812 320.734375 368.632812 319.773438 L 368.632812 76.671875 C 368.632812 75.726562 368.585938 74.785156 368.496094 73.847656 C 368.402344 72.90625 368.269531 71.972656 368.085938 71.046875 C 367.90625 70.121094 367.679688 69.203125 367.410156 68.296875 C 367.140625 67.394531 366.828125 66.503906 366.472656 65.628906 C 366.117188 64.753906 365.722656 63.898438 365.285156 63.0625 C 364.847656 62.226562 364.367188 61.410156 363.851562 60.621094 C 363.335938 59.828125 362.785156 59.066406 362.195312 58.328125 C 361.605469 57.589844 360.980469 56.882812 360.324219 56.203125 C 359.667969 55.527344 358.976562 54.882812 358.257812 54.269531 C 357.539062 53.660156 356.792969 53.085938 356.015625 52.546875 C 355.242188 52.007812 354.441406 51.503906 353.617188 51.042969 C 352.796875 50.582031 351.953125 50.160156 351.085938 49.777344 C 350.222656 49.394531 349.34375 49.058594 348.445312 48.761719 C 347.550781 48.464844 346.640625 48.210938 345.722656 48.003906 C 344.800781 47.792969 343.871094 47.628906 342.933594 47.507812 C 342 47.390625 341.058594 47.316406 340.113281 47.285156 Z M 117.558594 47.25 L 73.5 47.25 L 73.5 54.773438 L 117.558594 54.773438 Z M 206.804688 47.25 L 206.804688 54.773438 L 250.867188 54.773438 L 250.867188 47.25 Z M 206.804688 47.25 " fill-opacity="1" fill-rule="nonzero"/></g><g clip-path="url(#2d84a672d2)"><path fill="#ffffff" d="M 368.632812 76.671875 L 368.632812 101.882812 C 368.632812 102.378906 368.539062 102.859375 368.347656 103.320312 C 368.15625 103.78125 367.886719 104.1875 367.53125 104.542969 C 367.179688 104.894531 366.773438 105.167969 366.3125 105.359375 C 365.851562 105.546875 365.371094 105.644531 364.871094 105.644531 L 11.191406 105.644531 C 10.691406 105.644531 10.210938 105.546875 9.75 105.359375 C 9.289062 105.167969 8.882812 104.894531 8.53125 104.542969 C 8.175781 104.1875 7.90625 103.78125 7.714844 103.320312 C 7.523438 102.859375 7.425781 102.378906 7.425781 101.882812 L 7.425781 76.671875 C 7.429688 75.710938 7.476562 74.75 7.570312 73.789062 C 7.664062 72.832031 7.804688 71.882812 7.992188 70.9375 C 8.183594 69.992188 8.414062 69.058594 8.695312 68.140625 C 8.972656 67.21875 9.296875 66.3125 9.667969 65.421875 C 10.035156 64.53125 10.445312 63.664062 10.898438 62.816406 C 11.351562 61.964844 11.847656 61.140625 12.382812 60.339844 C 12.917969 59.539062 13.488281 58.765625 14.097656 58.023438 C 14.710938 57.277344 15.355469 56.566406 16.035156 55.882812 C 16.714844 55.203125 17.429688 54.554688 18.171875 53.945312 C 18.914062 53.332031 19.6875 52.757812 20.488281 52.222656 C 21.289062 51.6875 22.113281 51.191406 22.960938 50.738281 C 23.808594 50.285156 24.675781 49.871094 25.566406 49.503906 C 26.457031 49.132812 27.359375 48.808594 28.28125 48.527344 C 29.203125 48.246094 30.136719 48.011719 31.078125 47.824219 C 32.023438 47.632812 32.972656 47.492188 33.933594 47.394531 C 34.890625 47.300781 35.851562 47.25 36.8125 47.25 L 50.921875 47.25 L 50.921875 71.488281 C 50.921875 72.226562 50.996094 72.960938 51.140625 73.6875 C 51.285156 74.417969 51.5 75.121094 51.78125 75.808594 C 52.066406 76.492188 52.414062 77.140625 52.824219 77.757812 C 53.238281 78.375 53.703125 78.945312 54.230469 79.46875 C 54.753906 79.992188 55.324219 80.460938 55.941406 80.871094 C 56.554688 81.285156 57.207031 81.632812 57.890625 81.914062 C 58.574219 82.199219 59.28125 82.414062 60.007812 82.558594 C 60.734375 82.703125 61.46875 82.773438 62.210938 82.773438 C 62.953125 82.773438 63.6875 82.703125 64.414062 82.558594 C 65.140625 82.414062 65.84375 82.199219 66.53125 81.914062 C 67.214844 81.632812 67.867188 81.285156 68.480469 80.871094 C 69.097656 80.460938 69.667969 79.992188 70.191406 79.46875 C 70.714844 78.945312 71.183594 78.375 71.597656 77.757812 C 72.007812 77.140625 72.355469 76.492188 72.640625 75.808594 C 72.921875 75.121094 73.136719 74.417969 73.28125 73.6875 C 73.425781 72.960938 73.5 72.226562 73.5 71.488281 L 73.5 47.257812 L 117.558594 47.257812 L 117.558594 71.488281 C 117.558594 72.226562 117.628906 72.960938 117.773438 73.6875 C 117.917969 74.417969 118.132812 75.121094 118.417969 75.808594 C 118.699219 76.492188 119.046875 77.140625 119.460938 77.757812 C 119.871094 78.375 120.339844 78.945312 120.863281 79.46875 C 121.386719 79.992188 121.957031 80.460938 122.574219 80.871094 C 123.191406 81.285156 123.839844 81.632812 124.527344 81.914062 C 125.210938 82.199219 125.917969 82.414062 126.644531 82.558594 C 127.371094 82.703125 128.105469 82.773438 128.847656 82.773438 C 129.585938 82.773438 130.320312 82.703125 131.046875 82.558594 C 131.773438 82.414062 132.480469 82.199219 133.164062 81.914062 C 133.851562 81.632812 134.5 81.285156 135.117188 80.871094 C 135.734375 80.460938 136.304688 79.992188 136.828125 79.46875 C 137.351562 78.945312 137.820312 78.375 138.230469 77.757812 C 138.644531 77.140625 138.992188 76.492188 139.273438 75.808594 C 139.558594 75.121094 139.773438 74.417969 139.917969 73.6875 C 140.0625 72.960938 140.132812 72.226562 140.132812 71.488281 L 140.132812 47.257812 L 184.230469 47.257812 L 184.230469 71.488281 C 184.230469 72.226562 184.304688 72.960938 184.449219 73.6875 C 184.59375 74.417969 184.804688 75.121094 185.089844 75.808594 C 185.375 76.492188 185.722656 77.140625 186.132812 77.757812 C 186.546875 78.375 187.011719 78.945312 187.535156 79.46875 C 188.0625 79.992188 188.632812 80.460938 189.246094 80.871094 C 189.863281 81.285156 190.515625 81.632812 191.199219 81.914062 C 191.882812 82.199219 192.589844 82.414062 193.316406 82.558594 C 194.042969 82.703125 194.777344 82.773438 195.519531 82.773438 C 196.257812 82.773438 196.992188 82.703125 197.71875 82.558594 C 198.449219 82.414062 199.152344 82.199219 199.839844 81.914062 C 200.523438 81.632812 201.171875 81.285156 201.789062 80.871094 C 202.40625 80.460938 202.976562 79.992188 203.5 79.46875 C 204.023438 78.945312 204.492188 78.375 204.902344 77.757812 C 205.316406 77.140625 205.664062 76.492188 205.945312 75.808594 C 206.230469 75.121094 206.445312 74.417969 206.589844 73.6875 C 206.734375 72.960938 206.804688 72.226562 206.804688 71.488281 L 206.804688 47.257812 L 250.867188 47.257812 L 250.867188 71.488281 C 250.867188 72.226562 250.9375 72.960938 251.082031 73.6875 C 251.226562 74.417969 251.441406 75.121094 251.726562 75.808594 C 252.007812 76.492188 252.355469 77.140625 252.769531 77.757812 C 253.179688 78.375 253.648438 78.945312 254.171875 79.46875 C 254.695312 79.992188 255.265625 80.460938 255.882812 80.871094 C 256.5 81.285156 257.148438 81.632812 257.835938 81.914062 C 258.519531 82.199219 259.226562 82.414062 259.953125 82.558594 C 260.679688 82.703125 261.414062 82.773438 262.152344 82.773438 C 262.894531 82.773438 263.628906 82.703125 264.355469 82.558594 C 265.082031 82.414062 265.789062 82.199219 266.472656 81.914062 C 267.15625 81.632812 267.808594 81.285156 268.425781 80.871094 C 269.039062 80.460938 269.609375 79.992188 270.136719 79.46875 C 270.660156 78.945312 271.128906 78.375 271.539062 77.757812 C 271.949219 77.140625 272.296875 76.492188 272.582031 75.808594 C 272.867188 75.121094 273.078125 74.417969 273.222656 73.6875 C 273.367188 72.960938 273.441406 72.226562 273.441406 71.488281 L 273.441406 47.257812 L 317.539062 47.257812 L 317.539062 71.488281 C 317.539062 72.226562 317.609375 72.960938 317.753906 73.6875 C 317.898438 74.417969 318.113281 75.121094 318.398438 75.808594 C 318.679688 76.492188 319.03125 77.140625 319.441406 77.757812 C 319.851562 78.375 320.320312 78.945312 320.84375 79.46875 C 321.367188 79.992188 321.9375 80.460938 322.554688 80.871094 C 323.171875 81.285156 323.820312 81.632812 324.507812 81.914062 C 325.191406 82.199219 325.898438 82.414062 326.625 82.558594 C 327.351562 82.703125 328.085938 82.773438 328.828125 82.773438 C 329.566406 82.773438 330.300781 82.703125 331.027344 82.558594 C 331.753906 82.414062 332.460938 82.199219 333.144531 81.914062 C 333.832031 81.632812 334.480469 81.285156 335.097656 80.871094 C 335.714844 80.460938 336.285156 79.992188 336.808594 79.46875 C 337.332031 78.945312 337.800781 78.375 338.210938 77.757812 C 338.625 77.140625 338.972656 76.492188 339.253906 75.808594 C 339.539062 75.121094 339.753906 74.417969 339.898438 73.6875 C 340.042969 72.960938 340.113281 72.226562 340.113281 71.488281 L 340.113281 47.292969 C 341.058594 47.324219 341.996094 47.398438 342.933594 47.515625 C 343.871094 47.636719 344.800781 47.800781 345.71875 48.007812 C 346.640625 48.21875 347.550781 48.472656 348.445312 48.769531 C 349.34375 49.0625 350.222656 49.402344 351.085938 49.785156 C 351.949219 50.164062 352.792969 50.585938 353.617188 51.050781 C 354.441406 51.511719 355.238281 52.011719 356.015625 52.550781 C 356.789062 53.089844 357.535156 53.664062 358.253906 54.277344 C 358.976562 54.886719 359.664062 55.53125 360.320312 56.210938 C 360.980469 56.886719 361.601562 57.59375 362.191406 58.332031 C 362.78125 59.070312 363.335938 59.832031 363.851562 60.625 C 364.367188 61.414062 364.84375 62.226562 365.28125 63.066406 C 365.71875 63.902344 366.117188 64.757812 366.46875 65.632812 C 366.824219 66.507812 367.136719 67.394531 367.410156 68.300781 C 367.679688 69.207031 367.902344 70.121094 368.085938 71.046875 C 368.265625 71.972656 368.402344 72.90625 368.496094 73.847656 C 368.585938 74.785156 368.632812 75.726562 368.632812 76.671875 Z M 368.632812 76.671875 " fill-opacity="1" fill-rule="nonzero"/></g><path fill="#ffffff" d="M 89.753906 144.398438 L 89.753906 170.925781 C 89.75 171.625 89.679688 172.316406 89.539062 173.003906 C 89.402344 173.6875 89.195312 174.355469 88.925781 175 C 88.65625 175.648438 88.328125 176.261719 87.9375 176.839844 C 87.546875 177.421875 87.101562 177.960938 86.605469 178.453125 C 86.113281 178.949219 85.574219 179.390625 84.988281 179.777344 C 84.40625 180.164062 83.792969 180.492188 83.144531 180.761719 C 82.5 181.027344 81.832031 181.230469 81.148438 181.367188 C 80.460938 181.503906 79.765625 181.570312 79.066406 181.574219 L 52.539062 181.574219 C 51.84375 181.570312 51.148438 181.503906 50.464844 181.367188 C 49.777344 181.226562 49.113281 181.027344 48.46875 180.757812 C 47.824219 180.488281 47.210938 180.160156 46.628906 179.773438 C 46.046875 179.386719 45.511719 178.945312 45.015625 178.449219 C 44.523438 177.957031 44.082031 177.417969 43.691406 176.835938 C 43.304688 176.253906 42.976562 175.640625 42.707031 174.996094 C 42.4375 174.351562 42.238281 173.6875 42.101562 173 C 41.960938 172.316406 41.894531 171.625 41.894531 170.925781 L 41.894531 144.398438 C 41.894531 143.699219 41.960938 143.007812 42.101562 142.320312 C 42.238281 141.636719 42.4375 140.972656 42.707031 140.324219 C 42.976562 139.679688 43.304688 139.066406 43.691406 138.484375 C 44.082031 137.90625 44.523438 137.367188 45.015625 136.875 C 45.511719 136.378906 46.046875 135.9375 46.628906 135.550781 C 47.210938 135.160156 47.824219 134.832031 48.46875 134.566406 C 49.113281 134.296875 49.777344 134.09375 50.464844 133.957031 C 51.148438 133.820312 51.84375 133.75 52.539062 133.75 L 79.066406 133.75 C 79.765625 133.75 80.460938 133.820312 81.144531 133.957031 C 81.832031 134.09375 82.5 134.292969 83.144531 134.5625 C 83.792969 134.828125 84.40625 135.15625 84.988281 135.546875 C 85.574219 135.933594 86.113281 136.375 86.605469 136.867188 C 87.101562 137.363281 87.546875 137.902344 87.9375 138.480469 C 88.328125 139.0625 88.65625 139.675781 88.925781 140.320312 C 89.195312 140.96875 89.402344 141.632812 89.539062 142.320312 C 89.679688 143.003906 89.75 143.699219 89.753906 144.398438 Z M 89.753906 144.398438 " fill-opacity="1" fill-rule="nonzero"/><path fill="#ffffff" d="M 245.597656 280.941406 C 245.949219 281.296875 246.222656 281.707031 246.414062 282.167969 C 246.605469 282.632812 246.699219 283.113281 246.699219 283.613281 C 246.699219 284.113281 246.605469 284.59375 246.414062 285.058594 C 246.222656 285.519531 245.949219 285.929688 245.597656 286.285156 L 223.585938 308.257812 C 222.859375 308.980469 221.980469 309.34375 220.953125 309.351562 C 219.917969 309.34375 219.027344 308.980469 218.28125 308.257812 L 206.316406 296.292969 C 205.964844 295.941406 205.695312 295.535156 205.507812 295.074219 C 205.316406 294.617188 205.222656 294.136719 205.222656 293.640625 C 205.222656 293.144531 205.316406 292.664062 205.507812 292.207031 C 205.695312 291.746094 205.964844 291.339844 206.316406 290.988281 C 206.671875 290.636719 207.082031 290.363281 207.542969 290.171875 C 208.007812 289.984375 208.488281 289.886719 208.988281 289.886719 C 209.488281 289.886719 209.96875 289.984375 210.433594 290.171875 C 210.894531 290.363281 211.304688 290.636719 211.660156 290.988281 L 220.953125 300.28125 L 240.253906 280.941406 C 240.609375 280.589844 241.019531 280.316406 241.480469 280.128906 C 241.945312 279.9375 242.425781 279.839844 242.925781 279.839844 C 243.425781 279.839844 243.910156 279.9375 244.371094 280.128906 C 244.835938 280.316406 245.242188 280.589844 245.597656 280.941406 Z M 245.597656 280.941406 " fill-opacity="1" fill-rule="nonzero"/><path fill="#ffffff" d="M 209.515625 248.773438 C 208.816406 248.773438 208.121094 248.707031 207.433594 248.570312 C 206.746094 248.433594 206.078125 248.234375 205.433594 247.964844 C 204.785156 247.699219 204.167969 247.371094 203.585938 246.984375 C 203.003906 246.59375 202.464844 246.15625 201.96875 245.660156 C 201.472656 245.164062 201.027344 244.628906 200.640625 244.046875 C 200.25 243.464844 199.917969 242.851562 199.648438 242.203125 C 199.378906 241.558594 199.175781 240.890625 199.039062 240.203125 C 198.902344 239.519531 198.832031 238.824219 198.828125 238.125 L 198.828125 211.597656 C 198.832031 210.898438 198.902344 210.203125 199.039062 209.519531 C 199.175781 208.832031 199.378906 208.164062 199.648438 207.519531 C 199.917969 206.871094 200.25 206.257812 200.640625 205.675781 C 201.027344 205.09375 201.472656 204.554688 201.96875 204.0625 C 202.464844 203.566406 203.003906 203.125 203.585938 202.738281 C 204.167969 202.351562 204.785156 202.023438 205.433594 201.753906 C 206.078125 201.488281 206.746094 201.289062 207.433594 201.152344 C 208.121094 201.015625 208.816406 200.949219 209.515625 200.949219 L 236.003906 200.949219 C 236.703125 200.949219 237.398438 201.015625 238.085938 201.152344 C 238.773438 201.289062 239.4375 201.488281 240.085938 201.753906 C 240.734375 202.023438 241.347656 202.351562 241.933594 202.738281 C 242.515625 203.125 243.054688 203.566406 243.550781 204.0625 C 244.046875 204.554688 244.488281 205.09375 244.878906 205.675781 C 245.269531 206.257812 245.601562 206.871094 245.871094 207.519531 C 246.136719 208.164062 246.34375 208.832031 246.480469 209.519531 C 246.617188 210.203125 246.6875 210.898438 246.691406 211.597656 L 246.691406 238.125 C 246.6875 238.824219 246.617188 239.519531 246.480469 240.203125 C 246.34375 240.890625 246.136719 241.558594 245.871094 242.203125 C 245.601562 242.851562 245.269531 243.464844 244.878906 244.046875 C 244.488281 244.628906 244.046875 245.164062 243.550781 245.660156 C 243.054688 246.15625 242.515625 246.59375 241.933594 246.984375 C 241.347656 247.371094 240.734375 247.699219 240.085938 247.964844 C 239.4375 248.234375 238.773438 248.433594 238.085938 248.570312 C 237.398438 248.707031 236.703125 248.773438 236.003906 248.773438 Z M 209.515625 248.773438 " fill-opacity="1" fill-rule="nonzero"/><path fill="#ffffff" d="M 325.175781 144.398438 L 325.175781 170.925781 C 325.175781 171.625 325.105469 172.316406 324.96875 173.003906 C 324.828125 173.691406 324.625 174.359375 324.355469 175.003906 C 324.085938 175.652344 323.757812 176.265625 323.367188 176.847656 C 322.976562 177.429688 322.535156 177.964844 322.039062 178.460938 C 321.542969 178.953125 321.003906 179.394531 320.417969 179.785156 C 319.835938 180.171875 319.222656 180.5 318.574219 180.765625 C 317.925781 181.035156 317.257812 181.234375 316.570312 181.371094 C 315.886719 181.507812 315.191406 181.574219 314.492188 181.574219 L 288.003906 181.574219 C 287.300781 181.574219 286.609375 181.507812 285.921875 181.371094 C 285.234375 181.234375 284.566406 181.035156 283.917969 180.765625 C 283.273438 180.5 282.65625 180.171875 282.074219 179.785156 C 281.492188 179.394531 280.953125 178.953125 280.457031 178.460938 C 279.960938 177.964844 279.515625 177.429688 279.125 176.847656 C 278.734375 176.265625 278.40625 175.652344 278.136719 175.003906 C 277.867188 174.359375 277.664062 173.691406 277.527344 173.003906 C 277.386719 172.316406 277.320312 171.625 277.316406 170.925781 L 277.316406 144.398438 C 277.320312 143.699219 277.386719 143.003906 277.527344 142.316406 C 277.664062 141.632812 277.867188 140.964844 278.136719 140.320312 C 278.40625 139.671875 278.734375 139.058594 279.125 138.476562 C 279.515625 137.894531 279.960938 137.355469 280.457031 136.863281 C 280.953125 136.367188 281.492188 135.925781 282.074219 135.539062 C 282.65625 135.152344 283.273438 134.824219 283.917969 134.554688 C 284.566406 134.289062 285.234375 134.089844 285.921875 133.953125 C 286.609375 133.816406 287.300781 133.75 288.003906 133.75 L 314.492188 133.75 C 315.191406 133.75 315.886719 133.816406 316.570312 133.953125 C 317.257812 134.085938 317.925781 134.289062 318.574219 134.554688 C 319.222656 134.824219 319.835938 135.152344 320.417969 135.539062 C 321.003906 135.925781 321.542969 136.367188 322.039062 136.863281 C 322.535156 137.355469 322.976562 137.894531 323.367188 138.476562 C 323.757812 139.058594 324.085938 139.671875 324.355469 140.320312 C 324.625 140.964844 324.828125 141.632812 324.96875 142.316406 C 325.105469 143.003906 325.175781 143.699219 325.175781 144.398438 Z M 325.175781 144.398438 " fill-opacity="1" fill-rule="nonzero"/><path fill="#ffffff" d="M 131.027344 200.949219 L 157.554688 200.949219 C 158.253906 200.949219 158.945312 201.019531 159.632812 201.15625 C 160.316406 201.289062 160.984375 201.492188 161.628906 201.761719 C 162.273438 202.027344 162.886719 202.355469 163.46875 202.746094 C 164.050781 203.132812 164.589844 203.574219 165.082031 204.070312 C 165.578125 204.5625 166.019531 205.101562 166.40625 205.683594 C 166.796875 206.261719 167.125 206.878906 167.390625 207.523438 C 167.660156 208.167969 167.859375 208.835938 167.996094 209.519531 C 168.132812 210.207031 168.203125 210.898438 168.203125 211.597656 L 168.203125 238.125 C 168.203125 238.824219 168.132812 239.515625 167.996094 240.203125 C 167.859375 240.886719 167.660156 241.554688 167.390625 242.199219 C 167.125 242.84375 166.796875 243.457031 166.40625 244.039062 C 166.019531 244.621094 165.578125 245.160156 165.082031 245.652344 C 164.589844 246.148438 164.050781 246.589844 163.46875 246.976562 C 162.886719 247.367188 162.273438 247.695312 161.628906 247.960938 C 160.984375 248.230469 160.316406 248.429688 159.632812 248.566406 C 158.945312 248.703125 158.253906 248.773438 157.554688 248.773438 L 131.027344 248.773438 C 130.328125 248.773438 129.636719 248.703125 128.949219 248.566406 C 128.265625 248.429688 127.597656 248.230469 126.953125 247.960938 C 126.308594 247.695312 125.695312 247.367188 125.113281 246.976562 C 124.53125 246.589844 123.992188 246.148438 123.5 245.652344 C 123.003906 245.160156 122.5625 244.621094 122.175781 244.039062 C 121.785156 243.457031 121.457031 242.84375 121.191406 242.199219 C 120.921875 241.554688 120.722656 240.886719 120.585938 240.203125 C 120.449219 239.515625 120.378906 238.824219 120.378906 238.125 L 120.378906 211.597656 C 120.378906 210.898438 120.449219 210.207031 120.585938 209.519531 C 120.722656 208.835938 120.921875 208.167969 121.191406 207.523438 C 121.457031 206.878906 121.785156 206.261719 122.175781 205.683594 C 122.5625 205.101562 123.003906 204.5625 123.5 204.070312 C 123.992188 203.574219 124.53125 203.132812 125.113281 202.746094 C 125.695312 202.355469 126.308594 202.027344 126.953125 201.761719 C 127.597656 201.492188 128.265625 201.289062 128.949219 201.15625 C 129.636719 201.019531 130.328125 200.949219 131.027344 200.949219 Z M 131.027344 200.949219 " fill-opacity="1" fill-rule="nonzero"/><path fill="#ffffff" d="M 198.828125 170.925781 L 198.828125 144.398438 C 198.832031 143.699219 198.902344 143.003906 199.039062 142.316406 C 199.175781 141.632812 199.378906 140.964844 199.648438 140.320312 C 199.917969 139.671875 200.25 139.058594 200.640625 138.476562 C 201.027344 137.894531 201.472656 137.355469 201.96875 136.863281 C 202.464844 136.367188 203.003906 135.925781 203.585938 135.539062 C 204.167969 135.152344 204.785156 134.824219 205.433594 134.554688 C 206.078125 134.289062 206.746094 134.085938 207.433594 133.953125 C 208.121094 133.816406 208.816406 133.75 209.515625 133.75 L 236.003906 133.75 C 236.703125 133.75 237.398438 133.816406 238.085938 133.953125 C 238.773438 134.085938 239.4375 134.289062 240.085938 134.554688 C 240.734375 134.824219 241.347656 135.152344 241.933594 135.539062 C 242.515625 135.925781 243.054688 136.367188 243.550781 136.863281 C 244.046875 137.355469 244.488281 137.894531 244.878906 138.476562 C 245.269531 139.058594 245.601562 139.671875 245.871094 140.320312 C 246.136719 140.964844 246.34375 141.632812 246.480469 142.316406 C 246.617188 143.003906 246.6875 143.699219 246.691406 144.398438 L 246.691406 170.925781 C 246.6875 171.625 246.617188 172.320312 246.480469 173.003906 C 246.34375 173.691406 246.136719 174.359375 245.871094 175.003906 C 245.601562 175.652344 245.269531 176.265625 244.878906 176.847656 C 244.488281 177.429688 244.046875 177.964844 243.550781 178.460938 C 243.054688 178.953125 242.515625 179.394531 241.933594 179.785156 C 241.347656 180.171875 240.734375 180.5 240.085938 180.765625 C 239.4375 181.035156 238.773438 181.234375 238.085938 181.371094 C 237.398438 181.507812 236.703125 181.574219 236.003906 181.574219 L 209.515625 181.574219 C 208.816406 181.574219 208.121094 181.507812 207.433594 181.371094 C 206.746094 181.234375 206.078125 181.035156 205.433594 180.765625 C 204.785156 180.5 204.167969 180.171875 203.585938 179.785156 C 203.003906 179.394531 202.464844 178.953125 201.96875 178.460938 C 201.472656 177.964844 201.027344 177.429688 200.640625 176.847656 C 200.25 176.265625 199.917969 175.652344 199.648438 175.003906 C 199.378906 174.359375 199.175781 173.691406 199.039062 173.003906 C 198.902344 172.316406 198.832031 171.625 198.828125 170.925781 Z M 198.828125 170.925781 " fill-opacity="1" fill-rule="nonzero"/><path fill="#ffffff" d="M 325.175781 211.597656 L 325.175781 238.125 C 325.175781 238.824219 325.105469 239.519531 324.96875 240.203125 C 324.828125 240.890625 324.625 241.558594 324.355469 242.203125 C 324.085938 242.851562 323.757812 243.464844 323.367188 244.046875 C 322.976562 244.628906 322.535156 245.164062 322.039062 245.660156 C 321.542969 246.15625 321.003906 246.59375 320.417969 246.984375 C 319.835938 247.371094 319.222656 247.699219 318.574219 247.964844 C 317.925781 248.234375 317.257812 248.433594 316.570312 248.570312 C 315.886719 248.707031 315.191406 248.773438 314.492188 248.773438 L 288.003906 248.773438 C 287.300781 248.773438 286.609375 248.707031 285.921875 248.570312 C 285.234375 248.433594 284.566406 248.234375 283.917969 247.964844 C 283.273438 247.699219 282.65625 247.371094 282.074219 246.984375 C 281.492188 246.59375 280.953125 246.15625 280.457031 245.660156 C 279.960938 245.164062 279.515625 244.628906 279.125 244.046875 C 278.734375 243.464844 278.40625 242.851562 278.136719 242.203125 C 277.867188 241.558594 277.664062 240.890625 277.527344 240.203125 C 277.386719 239.519531 277.320312 238.824219 277.316406 238.125 L 277.316406 211.597656 C 277.320312 210.898438 277.386719 210.203125 277.527344 209.519531 C 277.664062 208.832031 277.867188 208.164062 278.136719 207.519531 C 278.40625 206.871094 278.734375 206.257812 279.125 205.675781 C 279.515625 205.09375 279.960938 204.554688 280.457031 204.0625 C 280.953125 203.566406 281.492188 203.125 282.074219 202.738281 C 282.65625 202.351562 283.273438 202.023438 283.917969 201.753906 C 284.566406 201.488281 285.234375 201.289062 285.921875 201.152344 C 286.609375 201.015625 287.300781 200.949219 288.003906 200.949219 L 314.492188 200.949219 C 315.191406 200.949219 315.886719 201.015625 316.570312 201.152344 C 317.257812 201.289062 317.925781 201.488281 318.574219 201.753906 C 319.222656 202.023438 319.835938 202.351562 320.417969 202.738281 C 321.003906 203.125 321.542969 203.566406 322.039062 204.0625 C 322.535156 204.554688 322.976562 205.09375 323.367188 205.675781 C 323.757812 206.257812 324.085938 206.871094 324.355469 207.519531 C 324.625 208.164062 324.828125 208.832031 324.96875 209.519531 C 325.105469 210.203125 325.175781 210.898438 325.175781 211.597656 Z M 325.175781 211.597656 " fill-opacity="1" fill-rule="nonzero"/><path fill="#ffffff" d="M 131.027344 268.148438 L 157.554688 268.148438 C 158.253906 268.148438 158.945312 268.21875 159.632812 268.355469 C 160.316406 268.492188 160.984375 268.691406 161.628906 268.960938 C 162.273438 269.226562 162.886719 269.554688 163.46875 269.945312 C 164.050781 270.332031 164.589844 270.773438 165.082031 271.269531 C 165.578125 271.761719 166.019531 272.300781 166.40625 272.882812 C 166.796875 273.464844 167.125 274.078125 167.390625 274.722656 C 167.660156 275.367188 167.859375 276.035156 167.996094 276.71875 C 168.132812 277.40625 168.203125 278.097656 168.203125 278.796875 L 168.203125 305.324219 C 168.203125 306.023438 168.132812 306.714844 167.996094 307.402344 C 167.859375 308.085938 167.660156 308.753906 167.390625 309.398438 C 167.125 310.042969 166.796875 310.65625 166.40625 311.238281 C 166.019531 311.820312 165.578125 312.359375 165.082031 312.851562 C 164.589844 313.347656 164.050781 313.789062 163.46875 314.175781 C 162.886719 314.566406 162.273438 314.894531 161.628906 315.160156 C 160.984375 315.429688 160.316406 315.628906 159.632812 315.765625 C 158.945312 315.902344 158.253906 315.972656 157.554688 315.972656 L 131.027344 315.972656 C 130.328125 315.972656 129.636719 315.902344 128.949219 315.765625 C 128.265625 315.628906 127.597656 315.429688 126.953125 315.160156 C 126.308594 314.894531 125.695312 314.566406 125.113281 314.175781 C 124.53125 313.789062 123.992188 313.347656 123.5 312.851562 C 123.003906 312.359375 122.5625 311.820312 122.175781 311.238281 C 121.785156 310.65625 121.457031 310.042969 121.191406 309.398438 C 120.921875 308.753906 120.722656 308.085938 120.585938 307.402344 C 120.449219 306.714844 120.378906 306.023438 120.378906 305.324219 L 120.378906 278.796875 C 120.378906 278.097656 120.449219 277.40625 120.585938 276.71875 C 120.722656 276.035156 120.921875 275.367188 121.191406 274.722656 C 121.457031 274.078125 121.785156 273.464844 122.175781 272.882812 C 122.5625 272.300781 123.003906 271.761719 123.5 271.269531 C 123.992188 270.773438 124.53125 270.332031 125.113281 269.945312 C 125.695312 269.554688 126.308594 269.226562 126.953125 268.960938 C 127.597656 268.691406 128.265625 268.492188 128.949219 268.355469 C 129.636719 268.21875 130.328125 268.148438 131.027344 268.148438 Z M 131.027344 268.148438 " fill-opacity="1" fill-rule="nonzero"/><path fill="#ffffff" d="M 89.753906 211.597656 L 89.753906 238.125 C 89.75 238.824219 89.679688 239.515625 89.539062 240.203125 C 89.402344 240.890625 89.195312 241.554688 88.925781 242.199219 C 88.65625 242.847656 88.328125 243.460938 87.9375 244.039062 C 87.546875 244.621094 87.101562 245.160156 86.605469 245.652344 C 86.113281 246.148438 85.574219 246.589844 84.988281 246.976562 C 84.40625 247.363281 83.792969 247.691406 83.144531 247.960938 C 82.5 248.226562 81.832031 248.429688 81.144531 248.566406 C 80.460938 248.703125 79.765625 248.773438 79.066406 248.773438 L 52.539062 248.773438 C 51.84375 248.769531 51.148438 248.703125 50.464844 248.566406 C 49.777344 248.429688 49.113281 248.226562 48.46875 247.957031 C 47.824219 247.691406 47.210938 247.363281 46.628906 246.972656 C 46.046875 246.585938 45.511719 246.144531 45.015625 245.648438 C 44.523438 245.15625 44.082031 244.617188 43.691406 244.035156 C 43.304688 243.457031 42.976562 242.84375 42.707031 242.195312 C 42.4375 241.550781 42.238281 240.886719 42.101562 240.199219 C 41.960938 239.515625 41.894531 238.824219 41.894531 238.125 L 41.894531 211.597656 C 41.894531 210.898438 41.960938 210.207031 42.101562 209.523438 C 42.238281 208.835938 42.4375 208.171875 42.707031 207.527344 C 42.976562 206.878906 43.304688 206.265625 43.691406 205.6875 C 44.082031 205.105469 44.523438 204.566406 45.015625 204.074219 C 45.511719 203.578125 46.046875 203.136719 46.628906 202.75 C 47.210938 202.359375 47.824219 202.03125 48.46875 201.765625 C 49.113281 201.496094 49.777344 201.292969 50.464844 201.15625 C 51.148438 201.019531 51.84375 200.949219 52.539062 200.949219 L 79.066406 200.949219 C 79.765625 200.949219 80.460938 201.019531 81.144531 201.15625 C 81.832031 201.292969 82.5 201.496094 83.144531 201.761719 C 83.792969 202.027344 84.40625 202.355469 84.988281 202.746094 C 85.574219 203.132812 86.113281 203.574219 86.605469 204.070312 C 87.101562 204.5625 87.546875 205.101562 87.9375 205.679688 C 88.328125 206.261719 88.65625 206.875 88.925781 207.519531 C 89.195312 208.167969 89.402344 208.832031 89.539062 209.519531 C 89.679688 210.207031 89.75 210.898438 89.753906 211.597656 Z M 89.753906 211.597656 " fill-opacity="1" fill-rule="nonzero"/><path fill="#ffffff" d="M 167.449219 147.113281 C 167.628906 147.285156 167.789062 147.472656 167.929688 147.679688 C 168.070312 147.882812 168.1875 148.097656 168.285156 148.324219 C 168.382812 148.554688 168.457031 148.789062 168.503906 149.03125 C 168.554688 149.273438 168.578125 149.519531 168.578125 149.769531 C 168.578125 150.015625 168.554688 150.261719 168.503906 150.503906 C 168.457031 150.746094 168.382812 150.980469 168.285156 151.210938 C 168.1875 151.4375 168.070312 151.652344 167.929688 151.855469 C 167.789062 152.0625 167.628906 152.25 167.449219 152.421875 L 145.476562 174.394531 C 144.742188 175.140625 143.851562 175.519531 142.804688 175.523438 C 141.765625 175.519531 140.890625 175.140625 140.171875 174.394531 L 128.207031 162.464844 C 127.855469 162.113281 127.582031 161.703125 127.390625 161.242188 C 127.203125 160.78125 127.109375 160.300781 127.109375 159.800781 C 127.109375 159.300781 127.207031 158.820312 127.402344 158.359375 C 127.59375 157.898438 127.867188 157.492188 128.222656 157.140625 C 128.578125 156.785156 128.984375 156.515625 129.445312 156.328125 C 129.910156 156.136719 130.390625 156.042969 130.890625 156.046875 C 131.390625 156.046875 131.871094 156.144531 132.332031 156.339844 C 132.792969 156.53125 133.199219 156.804688 133.550781 157.160156 L 142.804688 166.417969 L 162.144531 147.113281 C 162.496094 146.765625 162.902344 146.496094 163.363281 146.304688 C 163.820312 146.117188 164.300781 146.019531 164.796875 146.019531 C 165.292969 146.019531 165.773438 146.117188 166.230469 146.304688 C 166.691406 146.496094 167.097656 146.765625 167.449219 147.113281 Z M 167.449219 147.113281 " fill-opacity="1" fill-rule="nonzero"/><path fill="#ffffff" d="M 325.175781 278.804688 L 325.175781 305.332031 C 325.175781 306.03125 325.105469 306.726562 324.96875 307.410156 C 324.828125 308.097656 324.625 308.765625 324.355469 309.410156 C 324.085938 310.058594 323.757812 310.671875 323.367188 311.253906 C 322.976562 311.835938 322.535156 312.371094 322.039062 312.867188 C 321.542969 313.363281 321.003906 313.804688 320.417969 314.191406 C 319.835938 314.578125 319.222656 314.90625 318.574219 315.171875 C 317.925781 315.441406 317.257812 315.640625 316.570312 315.777344 C 315.886719 315.914062 315.191406 315.980469 314.492188 315.980469 L 288.003906 315.980469 C 287.300781 315.980469 286.609375 315.914062 285.921875 315.777344 C 285.234375 315.640625 284.566406 315.441406 283.917969 315.171875 C 283.273438 314.90625 282.65625 314.578125 282.074219 314.191406 C 281.492188 313.804688 280.953125 313.363281 280.457031 312.867188 C 279.960938 312.371094 279.515625 311.835938 279.125 311.253906 C 278.734375 310.671875 278.40625 310.058594 278.136719 309.410156 C 277.867188 308.765625 277.664062 308.097656 277.527344 307.410156 C 277.386719 306.726562 277.316406 306.03125 277.316406 305.332031 L 277.316406 278.804688 C 277.320312 278.105469 277.386719 277.410156 277.527344 276.726562 C 277.664062 276.039062 277.867188 275.371094 278.136719 274.726562 C 278.40625 274.078125 278.734375 273.464844 279.125 272.882812 C 279.515625 272.300781 279.960938 271.761719 280.457031 271.269531 C 280.953125 270.773438 281.492188 270.332031 282.074219 269.945312 C 282.65625 269.558594 283.273438 269.230469 283.917969 268.960938 C 284.566406 268.695312 285.234375 268.496094 285.921875 268.359375 C 286.609375 268.222656 287.300781 268.15625 288.003906 268.15625 L 314.492188 268.15625 C 315.191406 268.15625 315.886719 268.222656 316.570312 268.359375 C 317.257812 268.496094 317.925781 268.695312 318.574219 268.960938 C 319.222656 269.230469 319.835938 269.558594 320.417969 269.945312 C 321.003906 270.332031 321.542969 270.773438 322.039062 271.269531 C 322.535156 271.761719 322.976562 272.300781 323.367188 272.882812 C 323.757812 273.464844 324.085938 274.078125 324.355469 274.726562 C 324.625 275.371094 324.828125 276.039062 324.96875 276.726562 C 325.105469 277.410156 325.175781 278.105469 325.175781 278.804688 Z M 325.175781 278.804688 " fill-opacity="1" fill-rule="nonzero"/><path fill="#ffffff" d="M 89.753906 278.804688 L 89.753906 305.332031 C 89.75 306.03125 89.679688 306.722656 89.539062 307.410156 C 89.402344 308.097656 89.195312 308.761719 88.925781 309.40625 C 88.65625 310.054688 88.328125 310.667969 87.9375 311.246094 C 87.546875 311.828125 87.101562 312.367188 86.605469 312.859375 C 86.113281 313.355469 85.574219 313.796875 84.988281 314.183594 C 84.40625 314.570312 83.792969 314.898438 83.144531 315.167969 C 82.5 315.433594 81.832031 315.636719 81.144531 315.773438 C 80.460938 315.910156 79.765625 315.980469 79.066406 315.980469 L 52.539062 315.980469 C 51.84375 315.976562 51.148438 315.910156 50.464844 315.773438 C 49.777344 315.636719 49.113281 315.433594 48.46875 315.164062 C 47.824219 314.898438 47.210938 314.570312 46.628906 314.179688 C 46.046875 313.792969 45.511719 313.351562 45.015625 312.855469 C 44.523438 312.363281 44.082031 311.824219 43.691406 311.242188 C 43.304688 310.664062 42.976562 310.050781 42.707031 309.402344 C 42.4375 308.757812 42.238281 308.09375 42.101562 307.40625 C 41.960938 306.722656 41.894531 306.03125 41.894531 305.332031 L 41.894531 278.804688 C 41.894531 278.105469 41.960938 277.414062 42.101562 276.730469 C 42.238281 276.042969 42.4375 275.378906 42.707031 274.734375 C 42.976562 274.085938 43.304688 273.472656 43.691406 272.894531 C 44.082031 272.3125 44.523438 271.773438 45.015625 271.28125 C 45.511719 270.785156 46.046875 270.34375 46.628906 269.957031 C 47.210938 269.566406 47.824219 269.238281 48.46875 268.972656 C 49.113281 268.703125 49.777344 268.5 50.464844 268.363281 C 51.148438 268.226562 51.84375 268.15625 52.539062 268.15625 L 79.066406 268.15625 C 79.765625 268.15625 80.460938 268.226562 81.144531 268.363281 C 81.832031 268.5 82.5 268.703125 83.144531 268.96875 C 83.792969 269.234375 84.40625 269.5625 84.988281 269.953125 C 85.574219 270.339844 86.113281 270.78125 86.605469 271.277344 C 87.101562 271.769531 87.546875 272.308594 87.9375 272.886719 C 88.328125 273.46875 88.65625 274.082031 88.925781 274.730469 C 89.195312 275.375 89.402344 276.039062 89.539062 276.726562 C 89.679688 277.414062 89.75 278.105469 89.753906 278.804688 Z M 89.753906 278.804688 " fill-opacity="1" fill-rule="nonzero"/><path fill="#ffffff" d="M 328.8125 75.25 C 328.3125 75.25 327.832031 75.15625 327.371094 74.964844 C 326.910156 74.773438 326.503906 74.5 326.152344 74.148438 C 325.796875 73.796875 325.527344 73.386719 325.335938 72.925781 C 325.144531 72.464844 325.050781 71.984375 325.050781 71.488281 L 325.050781 30.027344 C 325.0625 29.28125 325.003906 28.539062 324.867188 27.804688 C 324.734375 27.070312 324.527344 26.355469 324.253906 25.664062 C 323.976562 24.96875 323.632812 24.308594 323.226562 23.683594 C 322.820312 23.058594 322.351562 22.476562 321.832031 21.945312 C 321.308594 21.414062 320.734375 20.9375 320.117188 20.515625 C 319.5 20.097656 318.847656 19.742188 318.15625 19.457031 C 317.46875 19.167969 316.757812 18.949219 316.027344 18.800781 C 315.292969 18.652344 314.554688 18.578125 313.808594 18.578125 C 313.0625 18.578125 312.320312 18.652344 311.589844 18.800781 C 310.859375 18.949219 310.148438 19.167969 309.457031 19.457031 C 308.769531 19.742188 308.117188 20.097656 307.5 20.515625 C 306.878906 20.9375 306.308594 21.414062 305.785156 21.945312 C 305.261719 22.476562 304.796875 23.058594 304.390625 23.683594 C 303.980469 24.308594 303.640625 24.96875 303.363281 25.664062 C 303.085938 26.355469 302.882812 27.070312 302.746094 27.804688 C 302.613281 28.539062 302.554688 29.28125 302.566406 30.027344 C 302.566406 30.527344 302.472656 31.007812 302.28125 31.46875 C 302.089844 31.929688 301.816406 32.335938 301.464844 32.6875 C 301.113281 33.039062 300.707031 33.3125 300.246094 33.503906 C 299.785156 33.695312 299.304688 33.789062 298.804688 33.789062 C 298.304688 33.789062 297.824219 33.695312 297.363281 33.503906 C 296.902344 33.3125 296.496094 33.039062 296.144531 32.6875 C 295.792969 32.335938 295.519531 31.929688 295.328125 31.46875 C 295.136719 31.007812 295.042969 30.527344 295.042969 30.027344 C 295.050781 29.417969 295.089844 28.8125 295.15625 28.207031 C 295.226562 27.601562 295.320312 27 295.449219 26.402344 C 295.574219 25.808594 295.730469 25.21875 295.914062 24.640625 C 296.097656 24.058594 296.308594 23.488281 296.546875 22.929688 C 296.785156 22.367188 297.050781 21.820312 297.34375 21.285156 C 297.636719 20.75 297.953125 20.234375 298.296875 19.730469 C 298.640625 19.226562 299.007812 18.742188 299.394531 18.273438 C 299.785156 17.804688 300.199219 17.355469 300.632812 16.929688 C 301.066406 16.5 301.519531 16.097656 301.992188 15.714844 C 302.464844 15.328125 302.957031 14.96875 303.464844 14.632812 C 303.972656 14.296875 304.496094 13.988281 305.035156 13.703125 C 305.574219 13.417969 306.125 13.160156 306.6875 12.929688 C 307.25 12.699219 307.824219 12.496094 308.40625 12.320312 C 308.992188 12.144531 309.582031 12 310.179688 11.878906 C 310.777344 11.761719 311.378906 11.675781 311.984375 11.617188 C 312.589844 11.554688 313.199219 11.527344 313.808594 11.527344 C 314.417969 11.527344 315.023438 11.554688 315.632812 11.617188 C 316.238281 11.675781 316.839844 11.761719 317.4375 11.878906 C 318.035156 12 318.625 12.144531 319.207031 12.320312 C 319.792969 12.496094 320.363281 12.699219 320.929688 12.929688 C 321.492188 13.160156 322.042969 13.417969 322.582031 13.703125 C 323.121094 13.988281 323.644531 14.296875 324.152344 14.632812 C 324.660156 14.96875 325.152344 15.328125 325.625 15.714844 C 326.097656 16.097656 326.550781 16.5 326.984375 16.929688 C 327.417969 17.355469 327.828125 17.804688 328.21875 18.273438 C 328.609375 18.742188 328.976562 19.226562 329.320312 19.730469 C 329.664062 20.234375 329.980469 20.75 330.273438 21.285156 C 330.566406 21.820312 330.832031 22.367188 331.070312 22.929688 C 331.308594 23.488281 331.519531 24.058594 331.703125 24.640625 C 331.886719 25.21875 332.042969 25.808594 332.167969 26.402344 C 332.292969 27 332.390625 27.601562 332.460938 28.207031 C 332.527344 28.8125 332.566406 29.417969 332.574219 30.027344 L 332.574219 71.488281 C 332.574219 71.984375 332.480469 72.464844 332.289062 72.925781 C 332.097656 73.386719 331.824219 73.796875 331.472656 74.148438 C 331.121094 74.5 330.710938 74.773438 330.25 74.964844 C 329.789062 75.15625 329.308594 75.25 328.8125 75.25 Z M 328.8125 75.25 " fill-opacity="1" fill-rule="nonzero"/><path fill="#ffffff" d="M 262.152344 75.25 C 261.65625 75.25 261.175781 75.15625 260.714844 74.964844 C 260.253906 74.773438 259.847656 74.5 259.492188 74.148438 C 259.140625 73.796875 258.867188 73.386719 258.675781 72.925781 C 258.488281 72.464844 258.390625 71.984375 258.390625 71.488281 L 258.390625 30.027344 C 258.390625 29.289062 258.320312 28.558594 258.179688 27.832031 C 258.035156 27.105469 257.820312 26.402344 257.539062 25.71875 C 257.257812 25.039062 256.910156 24.390625 256.5 23.773438 C 256.09375 23.160156 255.625 22.589844 255.105469 22.066406 C 254.582031 21.546875 254.011719 21.078125 253.398438 20.667969 C 252.785156 20.257812 252.136719 19.910156 251.453125 19.625 C 250.773438 19.34375 250.070312 19.128906 249.34375 18.984375 C 248.621094 18.839844 247.886719 18.769531 247.148438 18.769531 C 246.410156 18.769531 245.679688 18.839844 244.953125 18.984375 C 244.230469 19.128906 243.523438 19.34375 242.84375 19.625 C 242.160156 19.910156 241.511719 20.257812 240.898438 20.667969 C 240.285156 21.078125 239.714844 21.546875 239.195312 22.066406 C 238.671875 22.589844 238.207031 23.160156 237.796875 23.773438 C 237.386719 24.390625 237.039062 25.039062 236.757812 25.71875 C 236.476562 26.402344 236.261719 27.105469 236.121094 27.832031 C 235.976562 28.558594 235.90625 29.289062 235.90625 30.027344 C 235.90625 30.527344 235.808594 31.007812 235.621094 31.46875 C 235.429688 31.929688 235.15625 32.335938 234.804688 32.6875 C 234.449219 33.039062 234.042969 33.3125 233.582031 33.503906 C 233.121094 33.695312 232.640625 33.789062 232.144531 33.789062 C 231.644531 33.789062 231.164062 33.695312 230.703125 33.503906 C 230.242188 33.3125 229.835938 33.039062 229.484375 32.6875 C 229.128906 32.335938 228.859375 31.929688 228.667969 31.46875 C 228.476562 31.007812 228.378906 30.527344 228.382812 30.027344 C 228.382812 29.414062 228.414062 28.800781 228.472656 28.1875 C 228.535156 27.578125 228.625 26.972656 228.746094 26.367188 C 228.863281 25.765625 229.015625 25.171875 229.195312 24.582031 C 229.371094 23.996094 229.578125 23.417969 229.816406 22.851562 C 230.050781 22.285156 230.3125 21.730469 230.601562 21.1875 C 230.894531 20.644531 231.207031 20.121094 231.550781 19.609375 C 231.890625 19.097656 232.257812 18.605469 232.648438 18.132812 C 233.039062 17.65625 233.449219 17.203125 233.882812 16.769531 C 234.320312 16.335938 234.773438 15.921875 235.25 15.53125 C 235.722656 15.144531 236.214844 14.777344 236.726562 14.4375 C 237.238281 14.097656 237.765625 13.78125 238.304688 13.492188 C 238.847656 13.203125 239.402344 12.941406 239.972656 12.703125 C 240.539062 12.46875 241.117188 12.261719 241.703125 12.085938 C 242.292969 11.90625 242.886719 11.757812 243.488281 11.636719 C 244.09375 11.519531 244.699219 11.429688 245.308594 11.367188 C 245.921875 11.308594 246.535156 11.277344 247.148438 11.277344 C 247.761719 11.277344 248.375 11.308594 248.988281 11.367188 C 249.597656 11.429688 250.207031 11.519531 250.808594 11.636719 C 251.410156 11.757812 252.003906 11.90625 252.59375 12.085938 C 253.179688 12.261719 253.757812 12.46875 254.328125 12.703125 C 254.894531 12.941406 255.449219 13.203125 255.992188 13.492188 C 256.53125 13.78125 257.058594 14.097656 257.570312 14.4375 C 258.082031 14.777344 258.574219 15.144531 259.046875 15.53125 C 259.523438 15.921875 259.976562 16.335938 260.414062 16.769531 C 260.847656 17.203125 261.261719 17.65625 261.648438 18.132812 C 262.039062 18.605469 262.40625 19.097656 262.746094 19.609375 C 263.089844 20.121094 263.40625 20.644531 263.695312 21.1875 C 263.984375 21.730469 264.246094 22.285156 264.484375 22.851562 C 264.71875 23.417969 264.925781 23.996094 265.105469 24.582031 C 265.28125 25.171875 265.433594 25.765625 265.550781 26.367188 C 265.671875 26.972656 265.761719 27.578125 265.824219 28.1875 C 265.886719 28.800781 265.914062 29.414062 265.917969 30.027344 L 265.917969 71.488281 C 265.917969 71.984375 265.820312 72.464844 265.628906 72.925781 C 265.4375 73.386719 265.167969 73.796875 264.8125 74.148438 C 264.460938 74.5 264.054688 74.773438 263.59375 74.964844 C 263.132812 75.15625 262.652344 75.25 262.152344 75.25 Z M 262.152344 75.25 " fill-opacity="1" fill-rule="nonzero"/><path fill="#ffffff" d="M 195.507812 75.25 C 195.007812 75.25 194.527344 75.15625 194.066406 74.964844 C 193.605469 74.773438 193.199219 74.5 192.847656 74.148438 C 192.492188 73.796875 192.222656 73.386719 192.03125 72.925781 C 191.839844 72.464844 191.746094 71.984375 191.746094 71.488281 L 191.746094 30.027344 C 191.746094 29.289062 191.671875 28.558594 191.527344 27.835938 C 191.382812 27.109375 191.171875 26.40625 190.890625 25.726562 C 190.605469 25.042969 190.261719 24.394531 189.851562 23.78125 C 189.441406 23.167969 188.972656 22.601562 188.453125 22.078125 C 187.929688 21.554688 187.363281 21.089844 186.75 20.679688 C 186.132812 20.269531 185.488281 19.921875 184.804688 19.640625 C 184.121094 19.359375 183.417969 19.144531 182.695312 19 C 181.972656 18.855469 181.242188 18.785156 180.503906 18.785156 C 179.765625 18.785156 179.03125 18.855469 178.308594 19 C 177.585938 19.144531 176.882812 19.359375 176.199219 19.640625 C 175.519531 19.921875 174.871094 20.269531 174.257812 20.679688 C 173.640625 21.089844 173.074219 21.554688 172.550781 22.078125 C 172.03125 22.601562 171.5625 23.167969 171.152344 23.78125 C 170.742188 24.394531 170.398438 25.042969 170.117188 25.726562 C 169.832031 26.40625 169.621094 27.109375 169.476562 27.835938 C 169.332031 28.558594 169.257812 29.289062 169.257812 30.027344 C 169.257812 30.527344 169.164062 31.007812 168.972656 31.46875 C 168.78125 31.929688 168.511719 32.335938 168.15625 32.6875 C 167.804688 33.039062 167.398438 33.3125 166.9375 33.503906 C 166.476562 33.695312 165.996094 33.789062 165.496094 33.789062 C 164.996094 33.789062 164.519531 33.695312 164.058594 33.503906 C 163.597656 33.3125 163.1875 33.039062 162.835938 32.6875 C 162.484375 32.335938 162.210938 31.929688 162.019531 31.46875 C 161.828125 31.007812 161.734375 30.527344 161.734375 30.027344 C 161.734375 29.414062 161.765625 28.800781 161.824219 28.1875 C 161.886719 27.578125 161.976562 26.96875 162.09375 26.367188 C 162.214844 25.761719 162.363281 25.167969 162.542969 24.578125 C 162.722656 23.992188 162.929688 23.414062 163.164062 22.84375 C 163.398438 22.277344 163.660156 21.722656 163.949219 21.179688 C 164.238281 20.636719 164.554688 20.113281 164.898438 19.601562 C 165.238281 19.089844 165.605469 18.597656 165.996094 18.121094 C 166.382812 17.644531 166.796875 17.191406 167.230469 16.757812 C 167.664062 16.320312 168.121094 15.910156 168.597656 15.519531 C 169.070312 15.128906 169.5625 14.765625 170.074219 14.421875 C 170.585938 14.082031 171.113281 13.765625 171.65625 13.476562 C 172.195312 13.1875 172.753906 12.921875 173.320312 12.6875 C 173.886719 12.453125 174.464844 12.246094 175.054688 12.066406 C 175.640625 11.890625 176.238281 11.742188 176.839844 11.621094 C 177.445312 11.5 178.050781 11.410156 178.664062 11.351562 C 179.273438 11.289062 179.886719 11.261719 180.503906 11.261719 C 181.117188 11.261719 181.730469 11.289062 182.339844 11.351562 C 182.953125 11.410156 183.5625 11.5 184.164062 11.621094 C 184.765625 11.742188 185.363281 11.890625 185.949219 12.066406 C 186.539062 12.246094 187.117188 12.453125 187.683594 12.6875 C 188.253906 12.921875 188.808594 13.1875 189.347656 13.476562 C 189.890625 13.765625 190.417969 14.082031 190.929688 14.421875 C 191.441406 14.765625 191.933594 15.128906 192.410156 15.519531 C 192.882812 15.910156 193.339844 16.320312 193.773438 16.757812 C 194.207031 17.191406 194.621094 17.644531 195.011719 18.121094 C 195.398438 18.597656 195.765625 19.089844 196.105469 19.601562 C 196.449219 20.113281 196.765625 20.636719 197.054688 21.179688 C 197.34375 21.722656 197.605469 22.277344 197.839844 22.84375 C 198.078125 23.414062 198.285156 23.992188 198.460938 24.578125 C 198.640625 25.167969 198.789062 25.761719 198.910156 26.367188 C 199.027344 26.96875 199.121094 27.578125 199.179688 28.1875 C 199.238281 28.800781 199.269531 29.414062 199.269531 30.027344 L 199.269531 71.488281 C 199.269531 71.984375 199.175781 72.464844 198.984375 72.925781 C 198.792969 73.386719 198.519531 73.796875 198.167969 74.148438 C 197.816406 74.5 197.40625 74.773438 196.945312 74.964844 C 196.484375 75.15625 196.007812 75.25 195.507812 75.25 Z M 195.507812 75.25 " fill-opacity="1" fill-rule="nonzero"/><path fill="#ffffff" d="M 128.851562 75.25 C 128.355469 75.25 127.875 75.15625 127.414062 74.964844 C 126.953125 74.773438 126.546875 74.5 126.191406 74.148438 C 125.839844 73.796875 125.566406 73.386719 125.378906 72.925781 C 125.1875 72.464844 125.089844 71.984375 125.089844 71.488281 L 125.089844 30.027344 C 125.089844 29.289062 125.019531 28.558594 124.875 27.835938 C 124.730469 27.109375 124.515625 26.40625 124.234375 25.726562 C 123.953125 25.042969 123.605469 24.394531 123.195312 23.78125 C 122.785156 23.167969 122.320312 22.601562 121.796875 22.078125 C 121.277344 21.554688 120.707031 21.089844 120.09375 20.679688 C 119.480469 20.269531 118.832031 19.921875 118.152344 19.640625 C 117.46875 19.359375 116.765625 19.144531 116.042969 19 C 115.316406 18.855469 114.585938 18.785156 113.847656 18.785156 C 113.109375 18.785156 112.378906 18.855469 111.65625 19 C 110.929688 19.144531 110.226562 19.359375 109.546875 19.640625 C 108.863281 19.921875 108.214844 20.269531 107.601562 20.679688 C 106.988281 21.089844 106.421875 21.554688 105.898438 22.078125 C 105.375 22.601562 104.910156 23.167969 104.5 23.78125 C 104.089844 24.394531 103.742188 25.042969 103.460938 25.726562 C 103.179688 26.40625 102.964844 27.109375 102.820312 27.835938 C 102.675781 28.558594 102.605469 29.289062 102.605469 30.027344 C 102.605469 30.527344 102.511719 31.007812 102.320312 31.46875 C 102.128906 31.929688 101.855469 32.335938 101.503906 32.6875 C 101.152344 33.039062 100.742188 33.3125 100.28125 33.503906 C 99.820312 33.695312 99.34375 33.789062 98.84375 33.789062 C 98.34375 33.789062 97.863281 33.695312 97.402344 33.503906 C 96.941406 33.3125 96.535156 33.039062 96.183594 32.6875 C 95.828125 32.335938 95.558594 31.929688 95.367188 31.46875 C 95.175781 31.007812 95.082031 30.527344 95.082031 30.027344 C 95.082031 29.414062 95.113281 28.800781 95.171875 28.1875 C 95.234375 27.578125 95.324219 26.96875 95.441406 26.367188 C 95.5625 25.765625 95.714844 25.171875 95.890625 24.582031 C 96.070312 23.996094 96.277344 23.417969 96.511719 22.847656 C 96.75 22.28125 97.011719 21.726562 97.300781 21.1875 C 97.589844 20.644531 97.90625 20.117188 98.246094 19.605469 C 98.589844 19.097656 98.957031 18.601562 99.34375 18.128906 C 99.734375 17.652344 100.148438 17.199219 100.582031 16.765625 C 101.015625 16.332031 101.472656 15.917969 101.945312 15.527344 C 102.421875 15.140625 102.914062 14.773438 103.425781 14.433594 C 103.9375 14.089844 104.460938 13.777344 105.003906 13.488281 C 105.546875 13.199219 106.101562 12.933594 106.667969 12.699219 C 107.238281 12.464844 107.816406 12.257812 108.402344 12.082031 C 108.992188 11.902344 109.585938 11.753906 110.1875 11.632812 C 110.789062 11.511719 111.398438 11.421875 112.007812 11.363281 C 112.621094 11.304688 113.234375 11.273438 113.847656 11.273438 C 114.460938 11.273438 115.074219 11.304688 115.6875 11.363281 C 116.296875 11.421875 116.90625 11.511719 117.507812 11.632812 C 118.109375 11.753906 118.707031 11.902344 119.292969 12.082031 C 119.882812 12.257812 120.460938 12.464844 121.027344 12.699219 C 121.59375 12.933594 122.148438 13.199219 122.691406 13.488281 C 123.234375 13.777344 123.761719 14.089844 124.269531 14.433594 C 124.78125 14.773438 125.273438 15.140625 125.75 15.527344 C 126.226562 15.917969 126.679688 16.332031 127.113281 16.765625 C 127.550781 17.199219 127.960938 17.652344 128.351562 18.128906 C 128.742188 18.601562 129.105469 19.097656 129.449219 19.605469 C 129.789062 20.117188 130.105469 20.644531 130.394531 21.1875 C 130.683594 21.726562 130.949219 22.28125 131.183594 22.847656 C 131.417969 23.417969 131.625 23.996094 131.804688 24.582031 C 131.984375 25.171875 132.132812 25.765625 132.253906 26.367188 C 132.375 26.96875 132.464844 27.578125 132.523438 28.1875 C 132.585938 28.800781 132.617188 29.414062 132.617188 30.027344 L 132.617188 71.488281 C 132.617188 71.984375 132.519531 72.464844 132.328125 72.925781 C 132.136719 73.386719 131.867188 73.796875 131.515625 74.148438 C 131.160156 74.5 130.753906 74.773438 130.292969 74.964844 C 129.832031 75.15625 129.351562 75.25 128.851562 75.25 Z M 128.851562 75.25 " fill-opacity="1" fill-rule="nonzero"/><path fill="#ffffff" d="M 62.199219 75.25 C 61.699219 75.25 61.21875 75.15625 60.757812 74.964844 C 60.296875 74.773438 59.890625 74.5 59.539062 74.148438 C 59.1875 73.796875 58.914062 73.386719 58.722656 72.925781 C 58.53125 72.464844 58.4375 71.984375 58.4375 71.488281 L 58.4375 30.027344 C 58.4375 29.289062 58.363281 28.558594 58.222656 27.835938 C 58.078125 27.109375 57.863281 26.40625 57.582031 25.726562 C 57.296875 25.042969 56.953125 24.394531 56.542969 23.78125 C 56.132812 23.167969 55.664062 22.601562 55.144531 22.078125 C 54.621094 21.554688 54.054688 21.089844 53.441406 20.679688 C 52.828125 20.269531 52.179688 19.921875 51.496094 19.640625 C 50.816406 19.359375 50.113281 19.144531 49.386719 19 C 48.664062 18.855469 47.933594 18.785156 47.195312 18.785156 C 46.457031 18.785156 45.726562 18.855469 45 19 C 44.277344 19.144531 43.574219 19.359375 42.890625 19.640625 C 42.210938 19.921875 41.5625 20.269531 40.949219 20.679688 C 40.335938 21.089844 39.765625 21.554688 39.246094 22.078125 C 38.722656 22.601562 38.257812 23.167969 37.847656 23.78125 C 37.4375 24.394531 37.089844 25.042969 36.808594 25.726562 C 36.523438 26.40625 36.3125 27.109375 36.167969 27.835938 C 36.023438 28.558594 35.953125 29.289062 35.953125 30.027344 C 35.953125 30.527344 35.855469 31.007812 35.664062 31.46875 C 35.472656 31.929688 35.203125 32.335938 34.847656 32.6875 C 34.496094 33.039062 34.089844 33.3125 33.628906 33.503906 C 33.167969 33.695312 32.6875 33.789062 32.1875 33.789062 C 31.691406 33.789062 31.210938 33.695312 30.75 33.503906 C 30.289062 33.3125 29.882812 33.039062 29.527344 32.6875 C 29.175781 32.335938 28.902344 31.929688 28.710938 31.46875 C 28.523438 31.007812 28.425781 30.527344 28.425781 30.027344 C 28.425781 29.414062 28.457031 28.800781 28.515625 28.1875 C 28.578125 27.578125 28.667969 26.96875 28.785156 26.367188 C 28.90625 25.761719 29.054688 25.167969 29.234375 24.578125 C 29.414062 23.992188 29.621094 23.414062 29.855469 22.84375 C 30.089844 22.277344 30.351562 21.722656 30.640625 21.179688 C 30.933594 20.636719 31.246094 20.113281 31.589844 19.601562 C 31.929688 19.089844 32.296875 18.597656 32.6875 18.121094 C 33.078125 17.644531 33.488281 17.191406 33.921875 16.757812 C 34.359375 16.320312 34.8125 15.910156 35.289062 15.519531 C 35.761719 15.128906 36.257812 14.765625 36.765625 14.421875 C 37.277344 14.082031 37.804688 13.765625 38.347656 13.476562 C 38.890625 13.1875 39.445312 12.921875 40.011719 12.6875 C 40.578125 12.453125 41.15625 12.246094 41.746094 12.066406 C 42.335938 11.890625 42.929688 11.742188 43.53125 11.621094 C 44.136719 11.5 44.742188 11.410156 45.355469 11.351562 C 45.964844 11.289062 46.578125 11.261719 47.195312 11.261719 C 47.808594 11.261719 48.421875 11.289062 49.035156 11.351562 C 49.644531 11.410156 50.253906 11.5 50.855469 11.621094 C 51.457031 11.742188 52.054688 11.890625 52.640625 12.066406 C 53.230469 12.246094 53.808594 12.453125 54.375 12.6875 C 54.945312 12.921875 55.5 13.1875 56.042969 13.476562 C 56.582031 13.765625 57.109375 14.082031 57.621094 14.421875 C 58.132812 14.765625 58.625 15.128906 59.101562 15.519531 C 59.574219 15.910156 60.03125 16.320312 60.464844 16.757812 C 60.898438 17.191406 61.3125 17.644531 61.703125 18.121094 C 62.089844 18.597656 62.457031 19.089844 62.800781 19.601562 C 63.140625 20.113281 63.457031 20.636719 63.746094 21.179688 C 64.035156 21.722656 64.296875 22.277344 64.535156 22.84375 C 64.769531 23.414062 64.976562 23.992188 65.152344 24.578125 C 65.332031 25.167969 65.480469 25.761719 65.601562 26.367188 C 65.722656 26.96875 65.8125 27.578125 65.871094 28.1875 C 65.933594 28.800781 65.960938 29.414062 65.960938 30.027344 L 65.960938 71.488281 C 65.960938 71.984375 65.867188 72.464844 65.675781 72.925781 C 65.484375 73.386719 65.210938 73.796875 64.859375 74.148438 C 64.507812 74.5 64.101562 74.773438 63.640625 74.964844 C 63.179688 75.15625 62.699219 75.25 62.199219 75.25 Z M 62.199219 75.25 " fill-opacity="1" fill-rule="nonzero"/></svg>